<?xml version="1.0" encoding="UTF-8"?>
<svg version="1.1" xmlns="http://www.w3.org/2000/svg" width="357" height="222">
<path d="M0 0 C117.81 0 235.62 0 357 0 C357 73.26 357 146.52 357 222 C239.19 222 121.38 222 0 222 C0 148.74 0 75.48 0 0 Z " fill="#FDFDFD" transform="translate(0,0)"/>
<path d="M0 0 C5.55342123 2.07617077 11.07411535 1.9299069 16.93994141 1.94702148 C18.6839901 1.97039078 18.6839901 1.97039078 20.46327209 1.99423218 C24.15470783 2.04154654 27.84595552 2.06946659 31.53759766 2.09545898 C35.25410309 2.13192118 38.97050116 2.17244764 42.68690491 2.21810913 C44.99497678 2.2453948 47.30312798 2.26672021 49.61131287 2.28164673 C51.16411705 2.29703995 51.16411705 2.29703995 52.74829102 2.31274414 C53.66348007 2.31923981 54.57866913 2.32573547 55.52159119 2.33242798 C57.60009766 2.47045898 57.60009766 2.47045898 58.60009766 3.47045898 C58.68767769 5.47010881 58.70706342 7.47282008 58.69775391 9.47436523 C58.69453125 10.68930664 58.69130859 11.90424805 58.68798828 13.15600586 C58.67960938 14.43540039 58.67123047 15.71479492 58.66259766 17.03295898 C58.65808594 18.3162207 58.65357422 19.59948242 58.64892578 20.92163086 C58.63709311 24.10461921 58.62060834 27.28751661 58.60009766 30.47045898 C59.31037109 30.45885742 60.02064453 30.44725586 60.75244141 30.43530273 C61.67154297 30.4262793 62.59064453 30.41725586 63.53759766 30.40795898 C64.45412109 30.39635742 65.37064453 30.38475586 66.31494141 30.37280273 C68.60009766 30.47045898 68.60009766 30.47045898 69.60009766 31.47045898 C69.95155443 36.18921263 69.05417327 39.72599902 67.44775391 44.14624023 C66.77776367 46.00539063 66.77776367 46.00539063 66.09423828 47.90209961 C65.85938721 48.53865479 65.62453613 49.17520996 65.38256836 49.83105469 C64.65947648 51.79142077 63.94995072 53.7562906 63.24267578 55.72241211 C59.7588492 65.31170744 59.7588492 65.31170744 58.60009766 66.47045898 C56.24696211 66.5431764 53.89176097 66.55416766 51.53759766 66.53295898 C49.60207031 66.51942383 49.60207031 66.51942383 47.62744141 66.50561523 C46.62841797 66.49401367 45.62939453 66.48241211 44.60009766 66.47045898 C44.60009766 69.44045898 44.60009766 72.41045898 44.60009766 75.47045898 C45.71384766 75.67670898 46.82759766 75.88295898 47.97509766 76.09545898 C57.15790693 78.44000603 63.6750324 83.48957766 68.60009766 91.47045898 C69.21884766 92.35733398 69.83759766 93.24420898 70.47509766 94.15795898 C72.72735003 100.78959098 72.87571343 108.56422171 69.97509766 115.03295898 C66.66631038 120.56702221 61.61831012 122.77824266 55.60009766 124.47045898 C53.14481951 124.66620765 50.68070962 124.76373983 48.21777344 124.78930664 C47.14844322 124.80437508 47.14844322 124.80437508 46.05751038 124.81974792 C43.72015123 124.85043911 41.38290588 124.86757544 39.04541016 124.88452148 C37.41729767 124.90324449 35.78919478 124.92281875 34.16110229 124.94320679 C29.89015367 124.99441444 25.61917362 125.03410077 21.3480835 125.0713501 C16.98409322 125.11146124 12.62023236 125.16252106 8.25634766 125.21264648 C-0.29564708 125.30927109 -8.84770617 125.39371868 -17.39990234 125.47045898 C-15.39247762 127.47788371 -11.32900456 126.65551176 -8.57543945 126.67578125 C-7.34627052 126.69063065 -7.34627052 126.69063065 -6.0922699 126.70578003 C-3.37062517 126.73748953 -0.64896295 126.76218961 2.07275391 126.78686523 C3.95463019 126.80742662 5.83650177 126.82842286 7.71836853 126.84983826 C12.68153077 126.90514324 17.64473526 126.95451522 22.60797119 127.00268555 C27.66853616 127.05283921 32.72903946 127.10855722 37.78955078 127.16381836 C47.72634711 127.27150293 57.66319688 127.37292488 67.60009766 127.47045898 C67.98228533 129.12660556 68.31404867 130.79502923 68.60009766 132.47045898 C66.84570603 134.22485062 64.5451231 133.59028862 62.20838928 133.59487915 C61.43587326 133.59128387 60.66335724 133.5876886 59.86743164 133.58398438 C58.65289307 133.58420341 58.65289307 133.58420341 57.41381836 133.58442688 C54.72458257 133.58372752 52.03541516 133.57593408 49.34619141 133.56811523 C47.4867405 133.56625114 45.6272891 133.56482719 43.76783752 133.56382751 C38.8638067 133.56000169 33.9598053 133.55017086 29.05578613 133.53912354 C24.05558673 133.52891079 19.0553826 133.52433019 14.05517578 133.51928711 C4.23680345 133.50854865 -5.581547 133.49147146 -15.39990234 133.47045898 C-15.38830078 134.68604492 -15.37669922 135.90163086 -15.36474609 137.15405273 C-15.35536956 138.73868662 -15.34626922 140.32332216 -15.33740234 141.90795898 C-15.32902344 142.71040039 -15.32064453 143.5128418 -15.31201172 144.33959961 C-15.30338804 146.38341119 -15.34762084 148.427298 -15.39990234 150.47045898 C-16.39990234 151.47045898 -16.39990234 151.47045898 -20.27490234 151.72045898 C-22.44526392 151.90030866 -22.44526392 151.90030866 -24.39990234 152.47045898 C-26.20777541 154.84448316 -26.20777541 154.84448316 -27.39990234 157.47045898 C-30.93662999 159.96142564 -34.35541045 159.70033187 -38.57177734 159.66577148 C-39.25419495 159.66294159 -39.93661255 159.66011169 -40.63970947 159.65719604 C-42.80995542 159.64603997 -44.97978205 159.62094455 -47.14990234 159.59545898 C-48.62515678 159.58542324 -50.10041772 159.57629843 -51.57568359 159.56811523 C-55.18389176 159.54611586 -58.7918561 159.51161781 -62.39990234 159.47045898 C-62.96240234 157.53295898 -62.96240234 157.53295898 -63.39990234 155.47045898 C-62.39990234 154.47045898 -62.39990234 154.47045898 -60.6340332 154.35693359 C-59.88516846 154.36217041 -59.13630371 154.36740723 -58.36474609 154.37280273 C-57.55585938 154.37602539 -56.74697266 154.37924805 -55.91357422 154.38256836 C-55.0634375 154.39094727 -54.21330078 154.39932617 -53.33740234 154.40795898 C-52.48339844 154.4124707 -51.62939453 154.41698242 -50.74951172 154.42163086 C-48.63294571 154.43345525 -46.51641549 154.4513913 -44.39990234 154.47045898 C-44.72990234 153.81045898 -45.05990234 153.15045898 -45.39990234 152.47045898 C-49.33235319 152.34677307 -53.26405032 152.25608562 -57.19799805 152.19580078 C-59.1934379 152.15831524 -61.18833286 152.09478364 -63.18310547 152.03100586 C-64.43671875 152.01489258 -65.69033203 151.9987793 -66.98193359 151.98217773 C-68.13927002 151.95599365 -69.29660645 151.92980957 -70.48901367 151.90283203 C-73.60429299 152.16872969 -73.60429299 152.16872969 -75.19555664 154.91894531 C-75.59299072 155.76094482 -75.9904248 156.60294434 -76.39990234 157.47045898 C-79.87494145 160.17326718 -84.18453586 159.94076847 -88.39990234 159.47045898 C-89.73323568 158.80379232 -91.06656901 158.13712565 -92.39990234 157.47045898 C-93.29660645 157.93234619 -93.29660645 157.93234619 -94.21142578 158.40356445 C-96.74030912 159.63640919 -98.36812269 159.70163565 -101.16552734 159.66577148 C-102.05498047 159.65932617 -102.94443359 159.65288086 -103.86083984 159.64624023 C-105.24142578 159.62110352 -105.24142578 159.62110352 -106.64990234 159.59545898 C-107.58576172 159.58643555 -108.52162109 159.57741211 -109.48583984 159.56811523 C-111.79078891 159.54459535 -114.09521394 159.51172751 -116.39990234 159.47045898 C-116.39990234 157.82045898 -116.39990234 156.17045898 -116.39990234 154.47045898 C-114.08990234 154.47045898 -111.77990234 154.47045898 -109.39990234 154.47045898 C-109.72990234 153.81045898 -110.05990234 153.15045898 -110.39990234 152.47045898 C-112.26299327 152.04249719 -112.26299327 152.04249719 -114.39990234 151.90795898 C-118.30401193 151.5663494 -118.30401193 151.5663494 -119.39990234 150.47045898 C-119.50446055 148.48702699 -119.53845839 146.49984657 -119.54516602 144.51367188 C-119.55154587 143.23887466 -119.55792572 141.96407745 -119.5644989 140.65065002 C-119.56602746 139.24813881 -119.56714148 137.84562709 -119.56787109 136.44311523 C-119.57108199 135.01443955 -119.57444593 133.58576421 -119.57795715 132.15708923 C-119.58395473 129.15842934 -119.58579642 126.15979829 -119.58520508 123.16113281 C-119.58510343 119.31287949 -119.59875531 115.46481058 -119.61597729 111.61660099 C-119.6270794 108.66469976 -119.62912484 105.71284336 -119.62859535 102.76092339 C-119.62977819 101.34190676 -119.63421688 99.92288907 -119.64192772 98.5038929 C-119.65169089 96.52149949 -119.64759487 94.53905233 -119.64282227 92.55664062 C-119.64424728 91.42714493 -119.6456723 90.29764923 -119.6471405 89.13392639 C-119.39990234 86.47045898 -119.39990234 86.47045898 -117.39990234 84.47045898 C-114.69433594 84.2434082 -114.69433594 84.2434082 -111.29833984 84.27514648 C-110.08662109 84.2815918 -108.87490234 84.28803711 -107.62646484 84.29467773 C-106.35544922 84.31143555 -105.08443359 84.32819336 -103.77490234 84.34545898 C-102.49615234 84.35448242 -101.21740234 84.36350586 -99.89990234 84.37280273 C-96.73305067 84.39643596 -93.56656811 84.4293827 -90.39990234 84.47045898 C-90.70927734 83.27420898 -91.01865234 82.07795898 -91.33740234 80.84545898 C-95.92665144 62.36870775 -93.22167413 44.63695561 -83.49072266 28.17895508 C-73.06799615 11.85437135 -56.81828556 0.17011201 -37.82958984 -4.06079102 C-24.99230687 -5.81531716 -11.94196705 -5.37242737 0 0 Z " fill="#0E273F" transform="translate(284.39990234375,46.529541015625)"/>
<path d="M0 0 C18.81 0 37.62 0 57 0 C57 18.48 57 36.96 57 56 C51.72 56 46.44 56 41 56 C39.35 54.02 37.7 52.04 36 50 C33.77109005 48.88554502 32.46944894 48.83519714 30 48.8125 C29.29875 48.79832031 28.5975 48.78414062 27.875 48.76953125 C25.75475062 48.83487677 25.75475062 48.83487677 24 51 C21.73725212 50.64644564 20.04911148 50.02455574 18 49 C11.59959815 48.45750011 11.59959815 48.45750011 6 51 C5.18828772 53.55519921 5.18828772 53.55519921 5 56 C3.35 56 1.7 56 0 56 C0 37.52 0 19.04 0 0 Z " fill="#FAFBFB" transform="translate(170,137)"/>
<path d="M0 0 C0.89203125 0.226875 1.7840625 0.45375 2.703125 0.6875 C9.57135827 2.57135827 9.57135827 2.57135827 12 5 C12 8.3125 12 8.3125 11 12 C6.75833377 16.14467691 2.45203877 18.41139027 -3 20.625 C-5.04945452 21.4802235 -7.0966144 22.33940265 -9.13793945 23.21386719 C-10.71791235 23.88090701 -12.31633491 24.50397829 -13.91796875 25.1171875 C-19.75200068 28.68119687 -24.12824101 34.14233151 -28.74804688 39.12890625 C-34.27623956 44.88391939 -38.98516964 48.53512261 -47.10693359 49.1628418 C-48.73872899 49.18341749 -50.37138919 49.10395388 -52 49 C-51.54979057 43.14727744 -48.96160773 38.91779881 -46 34 C-46.99580078 34.34224609 -46.99580078 34.34224609 -48.01171875 34.69140625 C-48.89472656 34.97886719 -49.77773437 35.26632813 -50.6875 35.5625 C-51.55761719 35.85253906 -52.42773438 36.14257812 -53.32421875 36.44140625 C-57.06179023 37.2216584 -59.41795808 37.02859289 -62.67211914 34.9128418 C-64.55481302 33.51105204 -66.37460679 32.05335366 -68.1875 30.5625 C-68.81591797 30.05912109 -69.44433594 29.55574219 -70.09179688 29.03710938 C-72.49944558 27.09811529 -74.81230813 25.18769187 -77 23 C-76.921875 20.98828125 -76.921875 20.98828125 -76 19 C-73.890625 17.91796875 -73.890625 17.91796875 -71.25 17.1875 C-70.38890625 16.93355469 -69.5278125 16.67960937 -68.640625 16.41796875 C-64.66852955 15.7892495 -62.01224452 16.316051 -58.6875 18.5625 C-58.130625 19.036875 -57.57375 19.51125 -57 20 C-55.68 19.34 -54.36 18.68 -53 18 C-53.71027344 17.76925781 -54.42054688 17.53851563 -55.15234375 17.30078125 C-56.07144531 16.97464844 -56.99054688 16.64851563 -57.9375 16.3125 C-58.85402344 15.99925781 -59.77054688 15.68601562 -60.71484375 15.36328125 C-63 14 -63 14 -63.81640625 11.35546875 C-63.87699219 10.57816406 -63.93757812 9.80085938 -64 9 C-55.46436196 4.37721731 -49.34460246 3.28471079 -39.77392578 4.21679688 C-28.86417541 5.26593639 -21.53639026 5.69642436 -11.75 0.31640625 C-7.49515337 -1.72035982 -4.42113517 -1.25422274 0 0 Z " fill="#0E273F" transform="translate(242,17)"/>
<path d="M0 0 C1.06416138 -0.00014603 2.12832275 -0.00029205 3.22473145 -0.0004425 C6.72544426 0.00025151 10.22610318 0.00801994 13.72680664 0.01586914 C16.16060863 0.01773514 18.594411 0.01915818 21.0282135 0.02015686 C27.42161096 0.02396773 33.81498557 0.0337858 40.20837402 0.04486084 C46.73730154 0.05510572 53.26623277 0.05966107 59.79516602 0.06469727 C72.59660833 0.07540937 85.39803371 0.0924686 98.19946289 0.11352539 C98.19946289 3.41352539 98.19946289 6.71352539 98.19946289 10.11352539 C96.12139343 10.12232475 96.12139343 10.12232475 94.00134277 10.13130188 C80.9357835 10.1885524 67.87039029 10.2613266 54.80500031 10.3492403 C48.08819654 10.394135 41.37144505 10.43356404 34.65454102 10.45996094 C28.17052332 10.48599876 21.68673883 10.52640534 15.2028656 10.57671165 C12.73102218 10.59337698 10.25913842 10.60489332 7.7872467 10.6111393 C4.32088868 10.62078364 0.85512683 10.64884854 -2.61108398 10.68115234 C-3.62960449 10.67971725 -4.648125 10.67828217 -5.69750977 10.67680359 C-13.51917926 10.77966811 -20.43052294 12.00565607 -26.41381836 17.56274414 C-32.24484652 24.08364042 -33.57595338 30.04175055 -33.21069336 38.74243164 C-32.22044662 46.88131671 -29.05798925 51.53363817 -22.80053711 56.70336914 C-19.03693885 59.35699994 -16.15827253 60.3747568 -11.55053711 60.73852539 C-9.19928711 60.92415039 -9.19928711 60.92415039 -6.80053711 61.11352539 C-6.80053711 64.41352539 -6.80053711 67.71352539 -6.80053711 71.11352539 C-17.04843885 71.69087197 -23.93374761 69.19010609 -31.95288086 62.79711914 C-39.07982881 56.30300801 -43.13455253 48.2025273 -44.18334961 38.61352539 C-44.42381672 31.17507615 -43.62187202 25.51792292 -39.80053711 19.11352539 C-39.24366211 18.10290039 -38.68678711 17.09227539 -38.11303711 16.05102539 C-31.48676246 7.6338657 -23.68552472 1.78666284 -12.94061089 0.31947517 C-8.63625245 -0.09475432 -4.32033103 -0.01562554 0 0 Z " fill="#0B253D" transform="translate(43.800537109375,39.886474609375)"/>
<path d="M0 0 C8.58 0 17.16 0 26 0 C23.36 8.25 20.72 16.5 18 25 C-5.1 25 -28.2 25 -52 25 C-57 12 -57 12 -58 3 C-39.19 3 -20.38 3 -1 3 C-0.67 2.01 -0.34 1.02 0 0 Z " fill="#F9FAFA" transform="translate(322,83)"/>
<path d="M0 0 C5.94070658 -0.09953497 11.88091827 -0.17178154 17.82226562 -0.21972656 C19.83960435 -0.23973216 21.8568859 -0.2669456 23.87402344 -0.30175781 C26.78855573 -0.35076577 29.70231559 -0.37307964 32.6171875 -0.390625 C33.50614716 -0.41127014 34.39510681 -0.43191528 35.31100464 -0.45318604 C43.38150767 -0.45602081 50.76390085 1.57404792 56.8125 7.125 C63.1635572 14.35321433 65.76219723 21.60198245 65.56762695 31.13134766 C65.56835709 32.08865784 65.56908722 33.04596802 65.56983948 34.0322876 C65.56638817 37.16014585 65.52764385 40.28646817 65.48828125 43.4140625 C65.47894438 45.59694607 65.4718324 47.7798402 65.46684265 49.96273804 C65.44784181 55.68069893 65.39880051 61.39801486 65.34332275 67.11572266 C65.29198087 72.9611743 65.26929677 78.80673115 65.24414062 84.65234375 C65.19067515 96.10184434 65.10544636 107.55086833 65 119 C63.87411986 118.04270084 62.7493285 117.08412105 61.625 116.125 C60.99851563 115.59132813 60.37203125 115.05765625 59.7265625 114.5078125 C56.02001037 111.27086878 56.02001037 111.27086878 55.74171448 107.5037384 C55.7272486 105.96845604 55.72383141 104.43304768 55.72875977 102.89770508 C55.72353302 102.06009644 55.71830627 101.22248779 55.71292114 100.35949707 C55.70266327 98.53650097 55.69689764 96.71347544 55.69503975 94.89045143 C55.69138457 92.00240479 55.67467936 89.1147042 55.65428162 86.22673035 C55.59880125 78.0140935 55.56823717 69.80140434 55.54370117 61.58862305 C55.52779504 56.56765855 55.4975375 51.54693678 55.45893669 46.52609825 C55.44730679 44.61443351 55.44135652 42.70272527 55.44125557 40.79102516 C55.44106277 38.11018312 55.4227398 35.43000597 55.40063477 32.74926758 C55.40521194 31.96406235 55.40978912 31.17885712 55.414505 30.36985779 C55.34672008 25.17935821 54.2832393 21.66412228 52 17 C51.505 15.515 51.505 15.515 51 14 C49.16715557 12.87483915 49.16715557 12.87483915 47 12 C46.38566101 11.6572403 45.77132202 11.31448059 45.1383667 10.96133423 C42.78381634 9.90281145 41.1679105 9.72649254 38.59863281 9.68115234 C37.7380426 9.66128265 36.87745239 9.64141296 35.99078369 9.62094116 C34.61089264 9.60361435 34.61089264 9.60361435 33.203125 9.5859375 C31.77996979 9.55688828 31.77996979 9.55688828 30.32806396 9.5272522 C27.30213367 9.46754341 24.27616516 9.42110567 21.25 9.375 C19.19659813 9.33681223 17.14321214 9.29776003 15.08984375 9.2578125 C10.06002504 9.16184892 5.03013135 9.07778554 0 9 C0 6.03 0 3.06 0 0 Z " fill="#09243C" transform="translate(53,61)"/>
<path d="M0 0 C2.97 0 5.94 0 9 0 C9 44.22 9 88.44 9 134 C7 134 7 134 5.30137539 132.68856049 C0.37129429 127.67391845 -0.80830664 123.98090718 -0.87094116 117.0085144 C-0.84577423 115.85908356 -0.8206073 114.70965271 -0.79467773 113.52539062 C-0.79569992 112.29527252 -0.79672211 111.06515442 -0.79777527 109.79776001 C-0.79375139 106.44589705 -0.7588112 103.09710301 -0.70975757 99.74578285 C-0.66580837 96.23584787 -0.66187165 92.72586593 -0.65357971 89.21569824 C-0.63187795 82.57862228 -0.57451139 75.94235957 -0.50413328 69.3056407 C-0.42571789 61.74585941 -0.38736046 54.18603797 -0.35226524 46.62595081 C-0.27922233 31.08349726 -0.15620754 15.54185376 0 0 Z " fill="#09243C" transform="translate(128,65)"/>
<path d="M0 0 C12.87 0 25.74 0 39 0 C39.495 3.465 39.495 3.465 40 7 C45.28 7 50.56 7 56 7 C56.33 4.69 56.66 2.38 57 0 C67.89 0 78.78 0 90 0 C88.9653216 5.17339201 87.75454935 8.10565276 83.35638428 11.13034058 C79.96788195 12.38091885 76.6728335 12.26152618 73.11035156 12.22705078 C72.31972824 12.22734283 71.52910492 12.22763489 70.71452332 12.22793579 C68.1064448 12.22654467 65.49865349 12.21099379 62.890625 12.1953125 C61.08030351 12.19158159 59.26998 12.18873499 57.45965576 12.18673706 C52.69865325 12.17910672 47.93777308 12.15946334 43.17681885 12.1373291 C38.31711482 12.1168578 33.45739099 12.10773259 28.59765625 12.09765625 C19.06505047 12.07621691 9.53253541 12.04208815 0 12 C-1.87821255 6.67839777 -2.20063241 5.50158102 0 0 Z " fill="#F5F6F7" transform="translate(261,153)"/>
<path d="M0 0 C29.04 0 58.08 0 88 0 C88 2.97 88 5.94 88 9 C58.96 9 29.92 9 0 9 C0 6.03 0 3.06 0 0 Z " fill="#0B253D" transform="translate(54,20)"/>
<path d="M0 0 C6.27 0 12.54 0 19 0 C19.66 0.99 20.32 1.98 21 3 C17.37 3.33 13.74 3.66 10 4 C10 10.93 10 17.86 10 25 C16.86587717 25.28924869 16.86587717 25.28924869 23.73217773 25.56811523 C25.00750366 25.6252771 25.00750366 25.6252771 26.30859375 25.68359375 C27.18314209 25.72025146 28.05769043 25.75690918 28.95874023 25.79467773 C31 26 31 26 32 27 C32.07319621 29.69654854 32.09242537 32.36691458 32.0625 35.0625 C32.05798828 35.82111328 32.05347656 36.57972656 32.04882812 37.36132812 C32.0370068 39.24091871 32.01907078 41.12046899 32 43 C30.68 43 29.36 43 28 43 C26.96210419 41.35666496 25.96432076 39.68756133 25 38 C21.57905881 35.43429411 18.15226516 35.56291946 14 36 C10.77381267 38.0790985 9.1330698 39.80039529 7 43 C4.69 43 2.38 43 0 43 C0 28.81 0 14.62 0 0 Z " fill="#F0F2F3" transform="translate(232,150)"/>
<path d="M0 0 C22.77 0 45.54 0 69 0 C69 2.97 69 5.94 69 9 C46.23 9 23.46 9 0 9 C0 6.03 0 3.06 0 0 Z " fill="#0C253D" transform="translate(73,0)"/>
<path d="M0 0 C16.95936178 -0.07013611 33.91867818 -0.12301068 50.87815189 -0.15543652 C58.75304582 -0.17089376 66.62784953 -0.19196136 74.50268555 -0.22631836 C81.36781213 -0.25625579 88.23287336 -0.27558331 95.09806341 -0.28226548 C98.73186582 -0.28617041 102.36548131 -0.2953235 105.99922371 -0.31719017 C110.0595434 -0.34142479 114.11953982 -0.34196721 118.17993164 -0.34057617 C119.37971146 -0.351362 120.57949127 -0.36214783 121.81562805 -0.3732605 C127.99534513 -0.3503397 132.5435703 0.0102782 138 3 C138 3.33 138 3.66 138 4 C92.79 4 47.58 4 1 4 C0.67 2.68 0.34 1.36 0 0 Z " fill="#EAEDEF" transform="translate(199,127)"/>
<path d="M0 0 C1.216875 0.474375 2.43375 0.94875 3.6875 1.4375 C0.11389824 5.39255364 -3.00926537 7.50311938 -7.9375 9.5 C-9.06414062 9.96535156 -10.19078125 10.43070313 -11.3515625 10.91015625 C-12.67027885 11.42339104 -13.99076049 11.93210171 -15.3125 12.4375 C-16.51519531 12.90482544 -16.51519531 12.90482544 -17.7421875 13.3815918 C-25.06093103 16.14551422 -32.48501932 18.19916189 -40.0625 20.125 C-41.83173828 20.58616211 -41.83173828 20.58616211 -43.63671875 21.05664062 C-46.85499678 21.88383582 -50.07862748 22.67383004 -53.3125 23.4375 C-54.40703491 23.70929077 -54.40703491 23.70929077 -55.52368164 23.98657227 C-58.67875234 24.63701009 -60.0944545 24.55535375 -62.96484375 23.00390625 C-63.71894531 22.34261719 -64.47304687 21.68132813 -65.25 21 C-66.02214844 20.34128906 -66.79429687 19.68257812 -67.58984375 19.00390625 C-68.15832031 18.48699219 -68.72679687 17.97007813 -69.3125 17.4375 C-68.9825 16.7775 -68.6525 16.1175 -68.3125 15.4375 C-65.3405615 16.56201727 -62.97809313 17.66043791 -60.3125 19.4375 C-55.89129249 19.0872623 -52.03597459 17.11376112 -48.0625 15.26953125 C-47.36793701 14.95223557 -46.67337402 14.63493988 -45.95776367 14.30802917 C-43.74036945 13.29363215 -41.52642553 12.27194184 -39.3125 11.25 C-37.85568944 10.58220063 -36.39865998 9.9148786 -34.94140625 9.24804688 C-34.22662109 8.92037323 -33.51183594 8.59269958 -32.77539062 8.25509644 C-31.34610358 7.60002683 -29.91641796 6.94582614 -28.48632812 6.29251099 C-25.1450039 4.76115136 -21.82137528 3.20655002 -18.52734375 1.57568359 C-17.38394531 1.0183252 -16.24054688 0.4609668 -15.0625 -0.11328125 C-14.06734375 -0.61126221 -13.0721875 -1.10924316 -12.046875 -1.62231445 C-7.6147718 -3.14624565 -4.21025991 -1.64128776 0 0 Z " fill="#F3F4F6" transform="translate(244.3125,23.5625)"/>
<path d="M0 0 C6.6 0 13.2 0 20 0 C19.67 8.25 19.34 16.5 19 25 C11.41 25 3.82 25 -4 25 C-3.56206014 16.1536149 -2.62715349 8.45258078 0 0 Z " fill="#FAFAFB" transform="translate(222,82)"/>
<path d="M0 0 C27.72 0 55.44 0 84 0 C84 1.65 84 3.3 84 5 C56.28 5 28.56 5 0 5 C0 3.35 0 1.7 0 0 Z " fill="#042038" transform="translate(269,201)"/>
<path d="M0 0 C4.29 0 8.58 0 13 0 C12.566875 1.7015625 12.566875 1.7015625 12.125 3.4375 C10.4546427 10.85865885 9.83225753 18.45023527 9 26 C3.72 26 -1.56 26 -7 26 C-6.64806443 16.14580398 -4.38760951 8.77521902 0 0 Z " fill="#F5F6F7" transform="translate(204,81)"/>
<path d="M0 0 C3.3 0 6.6 0 10 0 C10.24234375 0.89460938 10.4846875 1.78921875 10.734375 2.7109375 C12.57215957 9.34109877 14.54017658 15.77794867 17.265625 22.109375 C18 24 18 24 18 26 C11.73 26 5.46 26 -1 26 C-1.08056639 17.21826355 -0.95775186 8.73948576 0 0 Z " fill="#F1F2F4" transform="translate(247,82)"/>
<path d="M0 0 C4.62 0 9.24 0 14 0 C14 8.58 14 17.16 14 26 C9.38 26 4.76 26 0 26 C0 17.42 0 8.84 0 0 Z " fill="#E4E7E9" transform="translate(266,54)"/>
<path d="M0 0 C-0.17015625 0.62003906 -0.3403125 1.24007812 -0.515625 1.87890625 C-2.7133087 9.9098036 -4.8592587 17.95376545 -7 26 C-12.94 26 -18.88 26 -25 26 C-21.08016004 17.14874848 -11.48141371 0 0 0 Z " fill="#F9F9FA" transform="translate(250,50)"/>
<path d="M0 0 C9.9 0 19.8 0 30 0 C30 3.63 30 7.26 30 11 C24.375 11.25 24.375 11.25 21 9 C18.68076726 8.63423946 18.68076726 8.63423946 16.11328125 8.5859375 C15.17548828 8.54726562 14.23769531 8.50859375 13.27148438 8.46875 C12.29501953 8.4378125 11.31855469 8.406875 10.3125 8.375 C9.32443359 8.33632812 8.33636719 8.29765625 7.31835938 8.2578125 C4.87909293 8.16354133 2.43983405 8.07793782 0 8 C0 5.36 0 2.72 0 0 Z " fill="#F6F7F8" transform="translate(232,137)"/>
<path d="M0 0 C9.57 0 19.14 0 29 0 C29 2.97 29 5.94 29 9 C19.43 9 9.86 9 0 9 C0 6.03 0 3.06 0 0 Z " fill="#F1F3F4" transform="translate(246,113)"/>
<path d="M0 0 C1.32 0 2.64 0 4 0 C3.67 0.99 3.34 1.98 3 3 C2.85060226 4.91765594 2.75189717 6.83946522 2.68359375 8.76171875 C2.64169922 9.87998047 2.59980469 10.99824219 2.55664062 12.15039062 C2.51732422 13.31763672 2.47800781 14.48488281 2.4375 15.6875 C2.39431641 16.86634766 2.35113281 18.04519531 2.30664062 19.25976562 C2.20048906 22.17303626 2.09973371 25.0865026 2 28 C-1.63 28 -5.26 28 -9 28 C-8.62265873 18.56646831 -6.92468599 7.07818888 0 0 Z " fill="#F8F8F9" transform="translate(258,48)"/>
<path d="M0 0 C7.59 0 15.18 0 23 0 C23 2.97 23 5.94 23 9 C15.41 9 7.82 9 0 9 C0 6.03 0 3.06 0 0 Z " fill="#F1F3F4" transform="translate(218,113)"/>
<path d="M0 0 C7.26 0 14.52 0 22 0 C22 2.97 22 5.94 22 9 C14.74 9 7.48 9 0 9 C0 6.03 0 3.06 0 0 Z " fill="#EEEFF1" transform="translate(280,113)"/>
<path d="M0 0 C4.29 0 8.58 0 13 0 C17 6.5 17 6.5 17 11 C11.39 11 5.78 11 0 11 C0 7.37 0 3.74 0 0 Z " fill="#F0F2F3" transform="translate(333,137)"/>
<path d="M0 0 C0.66 0.33 1.32 0.66 2 1 C1.49210937 1.59425781 0.98421875 2.18851563 0.4609375 2.80078125 C-4.58511263 8.87683038 -8.39618253 14.97255593 -12 22 C-15.63 22 -19.26 22 -23 22 C-17.94098277 11.88196553 -9.20207526 6.13471684 0 0 Z " fill="#F1F2F4" transform="translate(231,54)"/>
<path d="M0 0 C4.95 0 9.9 0 15 0 C15 3.63 15 7.26 15 11 C10.05 11 5.1 11 0 11 C0 7.37 0 3.74 0 0 Z " fill="#EFF0F2" transform="translate(267,137)"/>
<path d="M0 0 C5.28 0 10.56 0 16 0 C16 3.3 16 6.6 16 10 C10.72 10 5.44 10 0 10 C0 6.7 0 3.4 0 0 Z " fill="#E8EAEC" transform="translate(197,112)"/>
<path d="M0 0 C4.62 0 9.24 0 14 0 C14 3.63 14 7.26 14 11 C9.38 11 4.76 11 0 11 C0 7.37 0 3.74 0 0 Z " fill="#E4E7E9" transform="translate(304,54)"/>
<path d="M0 0 C4.95 0 9.9 0 15 0 C15 3.3 15 6.6 15 10 C10.05 10 5.1 10 0 10 C0 6.7 0 3.4 0 0 Z " fill="#E4E7E9" transform="translate(323,55)"/>
<path d="M0 0 C4.29 0 8.58 0 13 0 C13 3.63 13 7.26 13 11 C8.71 11 4.42 11 0 11 C0 7.37 0 3.74 0 0 Z " fill="#EAEDEF" transform="translate(287,137)"/>
<path d="M0 0 C4.62 0 9.24 0 14 0 C14 3.3 14 6.6 14 10 C9.38 10 4.76 10 0 10 C0 6.7 0 3.4 0 0 Z " fill="#F3F4F5" transform="translate(304,70)"/>
<path d="M0 0 C4.62 0 9.24 0 14 0 C14 3.3 14 6.6 14 10 C9.38 10 4.76 10 0 10 C0 6.7 0 3.4 0 0 Z " fill="#F4F5F6" transform="translate(285,70)"/>
<path d="M0 0 C4.62 0 9.24 0 14 0 C14 3.3 14 6.6 14 10 C9.38 10 4.76 10 0 10 C0 6.7 0 3.4 0 0 Z " fill="#F2F4F5" transform="translate(285,55)"/>
<path d="M0 0 C4.95 0 9.9 0 15 0 C15 2.64 15 5.28 15 8 C10.05 8 5.1 8 0 8 C0 5.36 0 2.72 0 0 Z " fill="#F8F9F9" transform="translate(308,114)"/>
<path d="M0 0 C1.98 0 3.96 0 6 0 C6 6.27 6 12.54 6 19 C4.02 19 2.04 19 0 19 C0 12.73 0 6.46 0 0 Z " fill="#FCFDFD" transform="translate(306,137)"/>
<path d="M0 0 C3.3 0 6.6 0 10 0 C10 3.63 10 7.26 10 11 C6.7 11 3.4 11 0 11 C0 7.37 0 3.74 0 0 Z " fill="#EFF1F2" transform="translate(318,137)"/>
<path d="M0 0 C2.64 0 5.28 0 8 0 C8.66 3.63 9.32 7.26 10 11 C6.7 11 3.4 11 0 11 C0 7.37 0 3.74 0 0 Z " fill="#F6F7F7" transform="translate(246,159)"/>
<path d="M0 0 C2 2 2 2 2.3125 4.4375 C2 7 2 7 0.8125 8.8125 C-1.64907776 10.42525784 -3.11065736 10.4334014 -6 10 C-7.8125 8.8125 -7.8125 8.8125 -9 7 C-9.4375 4.5 -9.4375 4.5 -9 2 C-6.07557433 -1.24936186 -4.04996841 -1.38551551 0 0 Z " fill="#E1E4E7" transform="translate(188,191)"/>
<path d="M0 0 C2.9375 0.875 2.9375 0.875 4.9375 3.875 C4.75 6.4375 4.75 6.4375 3.9375 8.875 C0.9375 10.875 0.9375 10.875 -1.625 10.625 C-4.0625 9.875 -4.0625 9.875 -6.0625 7.875 C-6.4258156 5.04113833 -6.4193671 3.46977849 -4.9375 1 C-3.0625 -0.125 -3.0625 -0.125 0 0 Z " fill="#E2E5E8" transform="translate(201.0625,190.125)"/>
<path d="M0 0 C4.29 0 8.58 0 13 0 C13 2.31 13 4.62 13 7 C8.71 7 4.42 7 0 7 C0 4.69 0 2.38 0 0 Z " fill="#F8F9F9" transform="translate(324,70)"/>
<path d="M0 0 C3.5625 0.1875 3.5625 0.1875 5.5625 2.1875 C5.92737512 5.03352594 5.96449375 6.5739306 4.375 9 C1.9489306 10.58949375 0.40852594 10.55237512 -2.4375 10.1875 C-4.4375 8.1875 -4.4375 8.1875 -4.625 4.625 C-4.38577586 0.23922414 -4.38577586 0.23922414 0 0 Z " fill="#EAEDEF" transform="translate(249.4375,190.8125)"/>
<path d="M0 0 C-0.68707031 0.61488281 -1.37414062 1.22976562 -2.08203125 1.86328125 C-3.43361328 3.07564453 -3.43361328 3.07564453 -4.8125 4.3125 C-5.70582031 5.11300781 -6.59914062 5.91351563 -7.51953125 6.73828125 C-9.92179497 8.85941949 -9.92179497 8.85941949 -11.63671875 10.79296875 C-13 12 -13 12 -16 12 C-14.744847 7.50236841 -13.37313654 4.28197069 -10 1 C-3.97560976 -1.32520325 -3.97560976 -1.32520325 0 0 Z " fill="#E6E9EB" transform="translate(215,47)"/>
<path d="M0 0 C2.91952568 0.01748219 5.72297885 0.13944633 8.625 0.375 C9.42679688 0.43171875 10.22859375 0.4884375 11.0546875 0.546875 C13.03715498 0.68847982 15.01869051 0.84302259 17 1 C14.4792063 3.6442908 12.57546849 5.00219484 9 6 C4.56994981 5.72312186 1.656699 4.47364932 -2 2 C-1.34 1.34 -0.68 0.68 0 0 Z " fill="#E7EAEC" transform="translate(191,26)"/>
<path d="M0 0 C2.31 0 4.62 0 7 0 C7.5625 1.9375 7.5625 1.9375 8 4 C7 5 7 5 3.4375 5.0625 C2.303125 5.041875 1.16875 5.02125 0 5 C0 3.35 0 1.7 0 0 Z " fill="#112840" transform="translate(269,61)"/>
<path d="M0 0 C2.31 0 4.62 0 7 0 C7.5625 1.9375 7.5625 1.9375 8 4 C7 5 7 5 3.9375 5.0625 C2.968125 5.041875 1.99875 5.02125 1 5 C0.67 3.35 0.34 1.7 0 0 Z " fill="#10263E" transform="translate(269,69)"/>
</svg>
