<?xml version="1.0" encoding="UTF-8"?>
<svg version="1.1" xmlns="http://www.w3.org/2000/svg" width="344" height="214">
<path d="M0 0 C113.52 0 227.04 0 344 0 C344 70.62 344 141.24 344 214 C230.48 214 116.96 214 0 214 C0 143.38 0 72.76 0 0 Z " fill="#CEEBEB" transform="translate(0,0)"/>
<path d="M0 0 C2.49696205 1.11500117 4.279711 1.23525697 7.00712585 1.26869202 C7.96459213 1.28533401 8.92205841 1.30197601 9.90853882 1.31912231 C11.44777763 1.33174355 11.44777763 1.33174355 13.01811218 1.34461975 C14.60418022 1.37011147 14.60418022 1.37011147 16.22229004 1.39611816 C19.59818061 1.44924167 22.97405859 1.48955696 26.35014343 1.5282135 C29.73687846 1.57208499 33.12351635 1.61871219 36.51013184 1.67102051 C38.61787634 1.70307665 40.72570717 1.7299354 42.83358765 1.75125122 C43.78159744 1.76474106 44.72960724 1.7782309 45.7063446 1.79212952 C46.54477402 1.80164139 47.38320343 1.81115326 48.24703979 1.82095337 C50.16264343 1.9657135 50.16264343 1.9657135 51.16264343 2.9657135 C51.25012551 4.89238857 51.26961677 6.82223211 51.26029968 8.75086975 C51.25707703 9.92069397 51.25385437 11.09051819 51.25053406 12.29579163 C51.24215515 13.52749084 51.23377625 14.75919006 51.22514343 16.0282135 C51.22063171 17.26377991 51.21612 18.49934631 51.21147156 19.77235413 C51.19963951 22.83685467 51.18315516 25.90126072 51.16264343 28.9657135 C54.46264343 28.9657135 57.76264343 28.9657135 61.16264343 28.9657135 C62.23733414 33.26447634 62.0244839 34.2163889 60.60014343 38.2157135 C60.23147156 39.25856506 59.86279968 40.30141663 59.48295593 41.37586975 C58.82940125 43.15284241 58.82940125 43.15284241 58.16264343 44.9657135 C57.90966492 45.66035706 57.6566864 46.35500061 57.39604187 47.07069397 C56.59496344 49.26708946 55.78709696 51.46081615 54.97514343 53.6532135 C54.71338318 54.36058655 54.45162292 55.06795959 54.18193054 55.79676819 C52.2827355 60.84562143 52.2827355 60.84562143 51.16264343 61.9657135 C48.9762489 62.03830296 46.78763954 62.04945133 44.60014343 62.0282135 C42.80383484 62.01467834 42.80383484 62.01467834 40.97123718 62.00086975 C39.58098328 61.98346741 39.58098328 61.98346741 38.16264343 61.9657135 C38.16264343 64.6057135 38.16264343 67.2457135 38.16264343 69.9657135 C39.58576843 70.2750885 39.58576843 70.2750885 41.03764343 70.5907135 C49.91829394 73.18465604 56.36288074 78.14035782 61.16264343 85.9657135 C62.09076843 87.3888385 62.09076843 87.3888385 63.03764343 88.8407135 C65.16545539 94.75130226 65.11045373 100.57072889 62.53764343 106.3407135 C60.43634865 110.03660787 57.91806371 111.93152751 54.16264343 113.9657135 C53.29267731 114.50112259 53.29267731 114.50112259 52.40513611 115.04734802 C49.30757651 116.31588809 46.62659356 116.24847663 43.28276062 116.28456116 C42.59942657 116.29460678 41.91609253 116.3046524 41.21205139 116.31500244 C38.96121535 116.34580748 36.71049812 116.36286179 34.45951843 116.379776 C32.8958077 116.39848984 31.33210703 116.41806342 29.76841736 116.4384613 C25.65855349 116.48976583 21.54865688 116.52940045 17.43864441 116.56660461 C13.24239516 116.60665484 9.04628188 116.65774253 4.85014343 116.707901 C-3.37893031 116.80464039 -11.60807141 116.88905144 -19.83735657 116.9657135 C-17.00218169 119.80088837 -14.24783841 119.2732013 -10.45014954 119.28456116 C-9.68907898 119.29460678 -8.92800842 119.3046524 -8.14387512 119.31500244 C-5.62243929 119.34595052 -3.10111017 119.36290158 -0.57954407 119.379776 C1.16638617 119.39847833 2.91230728 119.41805103 4.65821838 119.4384613 C9.25802745 119.48988745 13.85786586 119.52945689 18.45780945 119.56660461 C23.14985982 119.60657873 27.84178705 119.65770105 32.53373718 119.707901 C41.74328622 119.80478431 50.95290463 119.88914922 60.16264343 119.9657135 C60.16264343 121.6157135 60.16264343 123.2657135 60.16264343 124.9657135 C34.42264343 124.9657135 8.68264343 124.9657135 -17.83735657 124.9657135 C-17.83735657 130.2457135 -17.83735657 135.5257135 -17.83735657 140.9657135 C-18.83735657 141.9657135 -18.83735657 141.9657135 -20.68501282 142.06336975 C-22.73579407 142.03081767 -24.78657532 141.99826558 -26.83735657 141.9657135 C-27.20860657 143.1413385 -27.20860657 143.1413385 -27.58735657 144.3407135 C-29.07305378 147.46067766 -29.65031829 147.81861746 -32.83735657 148.9657135 C-36.04536438 149.19276428 -36.04536438 149.19276428 -39.79048157 149.161026 C-40.7808139 149.15678116 -40.7808139 149.15678116 -41.79115295 149.15245056 C-43.89007553 149.14129765 -45.98856399 149.11620296 -48.08735657 149.0907135 C-49.51443372 149.08067734 -50.94151759 149.0715526 -52.36860657 149.06336975 C-55.85832985 149.04137461 -59.3478008 149.00687886 -62.83735657 148.9657135 C-62.50735657 147.3157135 -62.17735657 145.6657135 -61.83735657 143.9657135 C-56.55735657 143.6357135 -51.27735657 143.3057135 -45.83735657 142.9657135 C-54.74735657 142.6357135 -63.65735657 142.3057135 -72.83735657 141.9657135 C-73.49735657 143.6157135 -74.15735657 145.2657135 -74.83735657 146.9657135 C-77.94721864 149.03895488 -78.72844044 149.23963536 -82.27485657 149.2157135 C-83.0366925 149.22086975 -83.79852844 149.226026 -84.58345032 149.2313385 C-87.05178675 148.9404427 -88.69504257 148.19547006 -90.83735657 146.9657135 C-91.82735657 147.9557135 -91.82735657 147.9557135 -92.83735657 148.9657135 C-94.90034485 149.19276428 -94.90034485 149.19276428 -97.40766907 149.161026 C-98.75151672 149.15135803 -98.75151672 149.15135803 -100.12251282 149.14149475 C-101.52823547 149.11635803 -101.52823547 149.11635803 -102.96235657 149.0907135 C-103.90723938 149.08169006 -104.85212219 149.07266663 -105.82563782 149.06336975 C-108.16312949 149.03975872 -110.5001178 149.00682866 -112.83735657 148.9657135 C-112.50735657 147.3157135 -112.17735657 145.6657135 -111.83735657 143.9657135 C-109.85735657 143.9657135 -107.87735657 143.9657135 -105.83735657 143.9657135 C-105.83735657 143.3057135 -105.83735657 142.6457135 -105.83735657 141.9657135 C-107.78641907 141.996651 -107.78641907 141.996651 -109.77485657 142.0282135 C-111.1290129 142.04970805 -112.4849174 142.03719549 -113.83735657 141.9657135 C-115.60459468 140.19847539 -114.9649849 137.6625251 -114.9667511 135.26844788 C-114.96990326 134.05048523 -114.97305542 132.83252258 -114.9763031 131.57765198 C-114.97451332 130.23825545 -114.97246236 128.89885926 -114.97016907 127.5594635 C-114.97084216 126.1956531 -114.97181224 124.83184282 -114.97306824 123.46803284 C-114.97454494 120.60640829 -114.97239153 117.7448149 -114.96772766 114.88319397 C-114.96203037 111.20752736 -114.96530952 107.53193376 -114.97130013 103.85626984 C-114.97490648 101.03909247 -114.97376681 98.22193252 -114.97117233 95.40475464 C-114.97050327 94.04911287 -114.97133078 92.69346954 -114.97365189 91.33782959 C-114.97617958 89.44621306 -114.9716467 87.55459101 -114.9667511 85.66297913 C-114.96595551 84.5845575 -114.96515991 83.50613586 -114.96434021 82.39503479 C-114.83735657 79.9657135 -114.83735657 79.9657135 -113.83735657 78.9657135 C-111.98366046 78.87833705 -110.12668116 78.85873197 -108.27095032 78.86805725 C-107.14624329 78.87127991 -106.02153625 78.87450256 -104.86274719 78.87782288 C-103.67874329 78.88620178 -102.49473938 78.89458069 -101.27485657 78.9032135 C-100.08698547 78.90772522 -98.89911438 78.91223694 -97.67524719 78.91688538 C-94.72923431 78.92871675 -91.78331976 78.94520063 -88.83735657 78.9657135 C-88.97810608 78.27026428 -89.11885559 77.57481506 -89.26387024 76.85829163 C-90.39518542 71.01474207 -91.19813513 65.41888604 -91.14985657 59.4657135 C-91.14357239 58.37407898 -91.14357239 58.37407898 -91.13716125 57.26039124 C-91.00978402 51.1415414 -89.94493407 45.7252141 -87.83735657 39.9657135 C-87.55891907 39.12782288 -87.28048157 38.28993225 -86.99360657 37.426651 C-80.64088394 19.73760439 -66.43956233 7.05597474 -49.80220032 -0.81163025 C-36.36138389 -6.35441752 -12.94376243 -7.28631501 0 0 Z " fill="#1B3044" transform="translate(274.8373565673828,52.03428649902344)"/>
<path d="M0 0 C2.49696205 1.11500117 4.279711 1.23525697 7.00712585 1.26869202 C7.96459213 1.28533401 8.92205841 1.30197601 9.90853882 1.31912231 C11.44777763 1.33174355 11.44777763 1.33174355 13.01811218 1.34461975 C14.60418022 1.37011147 14.60418022 1.37011147 16.22229004 1.39611816 C19.59818061 1.44924167 22.97405859 1.48955696 26.35014343 1.5282135 C29.73687846 1.57208499 33.12351635 1.61871219 36.51013184 1.67102051 C38.61787634 1.70307665 40.72570717 1.7299354 42.83358765 1.75125122 C43.78159744 1.76474106 44.72960724 1.7782309 45.7063446 1.79212952 C46.54477402 1.80164139 47.38320343 1.81115326 48.24703979 1.82095337 C50.16264343 1.9657135 50.16264343 1.9657135 51.16264343 2.9657135 C51.25012551 4.89238857 51.26961677 6.82223211 51.26029968 8.75086975 C51.25707703 9.92069397 51.25385437 11.09051819 51.25053406 12.29579163 C51.24215515 13.52749084 51.23377625 14.75919006 51.22514343 16.0282135 C51.22063171 17.26377991 51.21612 18.49934631 51.21147156 19.77235413 C51.19963951 22.83685467 51.18315516 25.90126072 51.16264343 28.9657135 C54.46264343 28.9657135 57.76264343 28.9657135 61.16264343 28.9657135 C60.83264343 30.9457135 60.50264343 32.9257135 60.16264343 34.9657135 C59.46783875 34.64860413 58.77303406 34.33149475 58.05717468 34.004776 C54.90075699 32.87170298 52.18984176 32.56091339 48.85014343 32.3407135 C47.78151062 32.26594788 46.71287781 32.19118225 45.61186218 32.114151 C44.80362 32.06516663 43.99537781 32.01618225 43.16264343 31.9657135 C43.16264343 31.3057135 43.16264343 30.6457135 43.16264343 29.9657135 C44.15264343 29.9657135 45.14264343 29.9657135 46.16264343 29.9657135 C46.16264343 27.3257135 46.16264343 24.6857135 46.16264343 21.9657135 C41.54264343 21.9657135 36.92264343 21.9657135 32.16264343 21.9657135 C31.83264343 23.2857135 31.50264343 24.6057135 31.16264343 25.9657135 C30.50264343 26.6257135 29.84264343 27.2857135 29.16264343 27.9657135 C29.05951843 27.0169635 28.95639343 26.0682135 28.85014343 25.0907135 C28.47725048 21.67463849 28.47725048 21.67463849 25.16264343 19.9657135 C23.11343404 19.51431891 23.11343404 19.51431891 20.97514343 19.3407135 C19.08795593 19.1550885 19.08795593 19.1550885 17.16264343 18.9657135 C17.16264343 18.6357135 17.16264343 18.3057135 17.16264343 17.9657135 C20.79264343 17.6357135 24.42264343 17.3057135 28.16264343 16.9657135 C28.49264343 14.3257135 28.82264343 11.6857135 29.16264343 8.9657135 C30.15264343 8.9657135 31.14264343 8.9657135 32.16264343 8.9657135 C32.16264343 11.6057135 32.16264343 14.2457135 32.16264343 16.9657135 C36.78264343 16.9657135 41.40264343 16.9657135 46.16264343 16.9657135 C46.16264343 13.3357135 46.16264343 9.7057135 46.16264343 5.9657135 C42.20264343 5.9657135 38.24264343 5.9657135 34.16264343 5.9657135 C34.16264343 5.6357135 34.16264343 5.3057135 34.16264343 4.9657135 C32.18264343 4.9657135 30.20264343 4.9657135 28.16264343 4.9657135 C28.16264343 5.2957135 28.16264343 5.6257135 28.16264343 5.9657135 C24.53264343 5.9657135 20.90264343 5.9657135 17.16264343 5.9657135 C16.66764343 4.4807135 16.66764343 4.4807135 16.16264343 2.9657135 C10.88264343 2.9657135 5.60264343 2.9657135 0.16264343 2.9657135 C0.16264343 3.9557135 0.16264343 4.9457135 0.16264343 5.9657135 C3.46264343 5.9657135 6.76264343 5.9657135 10.16264343 5.9657135 C10.16264343 6.2957135 10.16264343 6.6257135 10.16264343 6.9657135 C5.87264343 6.9657135 1.58264343 6.9657135 -2.83735657 6.9657135 C-2.83735657 10.2657135 -2.83735657 13.5657135 -2.83735657 16.9657135 C1.78264343 16.9657135 6.40264343 16.9657135 11.16264343 16.9657135 C8.16264343 20.9657135 8.16264343 20.9657135 5.46342468 21.3563385 C2.6964976 21.22613017 -0.07042948 21.09592183 -2.83735657 20.9657135 C-2.83735657 24.5957135 -2.83735657 28.2257135 -2.83735657 31.9657135 C-2.17735657 31.9657135 -1.51735657 31.9657135 -0.83735657 31.9657135 C-1.16735657 32.9557135 -1.49735657 33.9457135 -1.83735657 34.9657135 C14.00264343 35.4607135 14.00264343 35.4607135 30.16264343 35.9657135 C30.16264343 36.2957135 30.16264343 36.6257135 30.16264343 36.9657135 C12.67264343 36.9657135 -4.81735657 36.9657135 -22.83735657 36.9657135 C-21.51735657 41.2557135 -20.19735657 45.5457135 -18.83735657 49.9657135 C-20.81735657 50.9557135 -20.81735657 50.9557135 -22.83735657 51.9657135 C-23.49735657 51.6357135 -24.15735657 51.3057135 -24.83735657 50.9657135 C-25.64237876 48.50363832 -26.33333972 46.09746212 -26.96235657 43.5907135 C-27.14411438 42.90493225 -27.32587219 42.219151 -27.51313782 41.5125885 C-28.27081871 38.58440821 -28.83735657 36.00236621 -28.83735657 32.9657135 C-31.80735657 32.9657135 -34.77735657 32.9657135 -37.83735657 32.9657135 C-37.83735657 34.6157135 -37.83735657 36.2657135 -37.83735657 37.9657135 C-38.33235657 35.9857135 -38.33235657 35.9857135 -38.83735657 33.9657135 C-41.00280836 34.75430169 -41.00280836 34.75430169 -41.44258118 36.77137756 C-41.82405444 38.89177439 -42.03972442 40.92465013 -42.15376282 43.0750885 C-42.19565735 43.82919006 -42.23755188 44.58329163 -42.28071594 45.36024475 C-42.32003235 46.13754944 -42.35934875 46.91485413 -42.39985657 47.7157135 C-42.46463196 48.90487366 -42.46463196 48.90487366 -42.53071594 50.11805725 C-42.63638648 52.06709165 -42.73733623 54.01638098 -42.83735657 55.9657135 C-43.49735657 55.9657135 -44.15735657 55.9657135 -44.83735657 55.9657135 C-45.08790267 47.98999589 -44.48209395 40.77821606 -42.83735657 32.9657135 C-48.77735657 32.9657135 -54.71735657 32.9657135 -60.83735657 32.9657135 C-60.83735657 32.3057135 -60.83735657 31.6457135 -60.83735657 30.9657135 C-59.84735657 30.9657135 -58.85735657 30.9657135 -57.83735657 30.9657135 C-57.83735657 30.3057135 -57.83735657 29.6457135 -57.83735657 28.9657135 C-58.33235657 28.4707135 -58.82735657 27.9757135 -59.33735657 27.4657135 C-59.83235657 26.9707135 -60.32735657 26.4757135 -60.83735657 25.9657135 C-60.83735657 25.3057135 -60.83735657 24.6457135 -60.83735657 23.9657135 C-61.49735657 23.9657135 -62.15735657 23.9657135 -62.83735657 23.9657135 C-61.11217677 17.06499432 -56.88399345 11.83157533 -51.83735657 6.9657135 C-53.61123743 8.06497753 -55.3813534 9.17031852 -57.14985657 10.2782135 C-58.13598938 10.89309631 -59.12212219 11.50797913 -60.13813782 12.14149475 C-62.79135234 13.81016111 -62.79135234 13.81016111 -64.56782532 15.69618225 C-64.98677063 16.11512756 -65.40571594 16.53407288 -65.83735657 16.9657135 C-66.49735657 16.9657135 -67.15735657 16.9657135 -67.83735657 16.9657135 C-67.83735657 17.6257135 -67.83735657 18.2857135 -67.83735657 18.9657135 C-69.50402323 20.63238017 -71.1706899 22.29904683 -72.83735657 23.9657135 C-73.16735657 24.9557135 -73.49735657 25.9457135 -73.83735657 26.9657135 C-70.53735657 26.9657135 -67.23735657 26.9657135 -63.83735657 26.9657135 C-63.83735657 27.2957135 -63.83735657 27.6257135 -63.83735657 27.9657135 C-68.78735657 28.4607135 -68.78735657 28.4607135 -73.83735657 28.9657135 C-73.83735657 29.2957135 -73.83735657 29.6257135 -73.83735657 29.9657135 C-71.19735657 30.2957135 -68.55735657 30.6257135 -65.83735657 30.9657135 C-66.16735657 31.9557135 -66.49735657 32.9457135 -66.83735657 33.9657135 C-66.83735657 33.3057135 -66.83735657 32.6457135 -66.83735657 31.9657135 C-70.79735657 31.9657135 -74.75735657 31.9657135 -78.83735657 31.9657135 C-79.33235657 34.4407135 -79.33235657 34.4407135 -79.83735657 36.9657135 C-80.4762902 38.746741 -81.14429895 40.51754139 -81.83735657 42.2782135 C-83.57277226 46.91856415 -84.46537376 51.03694129 -84.83735657 55.9657135 C-85.16735657 55.9657135 -85.49735657 55.9657135 -85.83735657 55.9657135 C-86.16735657 53.3257135 -86.49735657 50.6857135 -86.83735657 47.9657135 C-87.16735657 47.9657135 -87.49735657 47.9657135 -87.83735657 47.9657135 C-88.49735657 54.5657135 -89.15735657 61.1657135 -89.83735657 67.9657135 C-90.16735657 67.9657135 -90.49735657 67.9657135 -90.83735657 67.9657135 C-91.14796231 58.15287295 -91.2583167 49.3143718 -87.83735657 39.9657135 C-87.55891907 39.12782288 -87.28048157 38.28993225 -86.99360657 37.426651 C-80.64088394 19.73760439 -66.43956233 7.05597474 -49.80220032 -0.81163025 C-36.36138389 -6.35441752 -12.94376243 -7.28631501 0 0 Z " fill="#1D3345" transform="translate(274.8373565673828,52.03428649902344)"/>
<path d="M0 0 C17.16 0 34.32 0 52 0 C52 16.83 52 33.66 52 51 C47.05 51 42.1 51 37 51 C35.68 49.35 34.36 47.7 33 46 C29.98675805 44.49337903 27.31713623 44.82229627 24 45 C23.34 45.66 22.68 46.32 22 47 C17.44444444 46.44444444 17.44444444 46.44444444 16 45 C12.40341524 44.72855964 9.85770188 44.54857796 6.625 46.25 C4.83328193 48.17954253 4.35606691 49.41851492 4 52 C2.68 52 1.36 52 0 52 C0 34.84 0 17.68 0 0 Z " fill="#D0EEED" transform="translate(165,137)"/>
<path d="M0 0 C9.99204771 2.99204771 9.99204771 2.99204771 13 6 C13 8.8125 13 8.8125 12 12 C7.83638289 15.96235465 3.58649766 18.46109717 -1.625 20.8125 C-2.27984375 21.12380859 -2.9346875 21.43511719 -3.609375 21.75585938 C-7.04260028 23.33694996 -9.15290179 24 -13 24 C-13.34998047 24.85658203 -13.34998047 24.85658203 -13.70703125 25.73046875 C-15.30958312 28.54340722 -17.23762181 30.2002773 -19.6875 32.3125 C-22.8299876 35.04138408 -25.73588855 37.76784847 -28.5 40.875 C-32.89402593 45.36273738 -38.62383396 46.92006292 -44.8046875 47.06640625 C-45.52914062 47.04449219 -46.25359375 47.02257812 -47 47 C-47.83861979 41.63283335 -44.92070405 38.20372761 -42 34 C-43.0209375 34.44279297 -43.0209375 34.44279297 -44.0625 34.89453125 C-48.41406393 36.25439498 -51.91871753 37.08673357 -56.13867188 34.88330078 C-58.44974086 33.31768874 -60.60159438 31.65709093 -62.75 29.875 C-63.46542969 29.28178955 -64.18085938 28.6885791 -64.91796875 28.07739258 C-68.64396742 24.78128192 -68.64396742 24.78128192 -70 23 C-70 21.68 -70 20.36 -70 19 C-65.05601526 17.0224061 -61.24801962 16.65586757 -56 17 C-55.01 17.66 -54.02 18.32 -53 19 C-50.41619823 19.25030977 -50.41619823 19.25030977 -48 19 C-47.67 18.67 -47.34 18.34 -47 18 C-47.71027344 17.76925781 -48.42054688 17.53851563 -49.15234375 17.30078125 C-50.07144531 16.97464844 -50.99054688 16.64851563 -51.9375 16.3125 C-52.85402344 15.99925781 -53.77054688 15.68601562 -54.71484375 15.36328125 C-57 14 -57 14 -57.81640625 11.35546875 C-57.87699219 10.57816406 -57.93757812 9.80085938 -58 9 C-49.5008874 3.70665426 -40.51479177 4.73031924 -30.93188477 5.1574707 C-22.77331577 5.49141421 -16.12398733 5.55171593 -8.95849609 1.14648438 C-5.78679343 -0.71019921 -3.58437593 -0.56595409 0 0 Z " fill="#142A3E" transform="translate(230,23)"/>
<path d="M0 0 C1.50867897 -0.00021904 1.50867897 -0.00021904 3.0478363 -0.0004425 C6.34831961 0.00025013 9.64874539 0.00801198 12.94921875 0.01586914 C15.24707 0.01773563 17.54492165 0.01915844 19.84277344 0.02015686 C25.87283437 0.02396387 31.90287099 0.03377857 37.93292236 0.04486084 C44.09329906 0.05511409 50.25367972 0.05966285 56.4140625 0.06469727 C68.4882919 0.07540253 80.5625033 0.09245705 92.63671875 0.11352539 C92.63671875 3.08352539 92.63671875 6.05352539 92.63671875 9.11352539 C90.68686317 9.12232475 90.68686317 9.12232475 88.69761658 9.13130188 C76.44112642 9.1885402 64.1848135 9.26130795 51.92850399 9.3492403 C45.62756062 9.39394811 39.32668197 9.4332036 33.02563477 9.45996094 C26.94361217 9.48598942 20.86183858 9.52638927 14.77997017 9.57671165 C12.46081199 9.59338332 10.14161074 9.60489571 7.82240105 9.6111393 C4.57135858 9.6207768 1.32095361 9.64883319 -1.92993164 9.68115234 C-2.88659225 9.67971725 -3.84325287 9.67828217 -4.8289032 9.67680359 C-12.87511954 9.78976255 -18.75858109 11.82334281 -24.78515625 17.32055664 C-29.14424563 22.27308641 -31.10464621 28.22908404 -30.73828125 34.78930664 C-29.47693833 42.60700497 -26.4879926 47.76219742 -20.36328125 52.73852539 C-15.36975739 56.17157305 -11.34075057 56.58610163 -5.36328125 57.11352539 C-5.36328125 60.41352539 -5.36328125 63.71352539 -5.36328125 67.11352539 C-11.02859306 66.65417578 -16.03520823 66.21671211 -21.36328125 64.11352539 C-21.36328125 63.45352539 -21.36328125 62.79352539 -21.36328125 62.11352539 C-22.04390625 62.09290039 -22.72453125 62.07227539 -23.42578125 62.05102539 C-29.60878025 60.07772784 -33.20140754 54.73298476 -36.23828125 49.23852539 C-36.62757812 48.47797852 -37.016875 47.71743164 -37.41796875 46.93383789 C-38.23018151 45.14607616 -38.23018151 45.14607616 -39.36328125 44.11352539 C-39.64372169 40.91395494 -39.59516906 37.6989113 -39.61328125 34.48852539 C-39.64421875 33.15241211 -39.64421875 33.15241211 -39.67578125 31.78930664 C-39.73053054 22.49561453 -36.60249946 15.9948108 -30.36328125 9.11352539 C-20.82553014 0.78866749 -12.30635113 -0.04735278 0 0 Z " fill="#12293C" transform="translate(45.36328125,45.886474609375)"/>
<path d="M0 0 C7.92 0 15.84 0 24 0 C22.40228269 8.7874452 20.89475166 15.21049669 17 23 C-4.12 23 -25.24 23 -47 23 C-51.52336449 15.08411215 -51.52336449 15.08411215 -52.75 10.75 C-52.99234375 9.91984375 -53.2346875 9.0896875 -53.484375 8.234375 C-54 6 -54 6 -54 3 C-36.51 2.67 -19.02 2.34 -1 2 C-0.67 1.34 -0.34 0.68 0 0 Z " fill="#D1E8EB" transform="translate(306,86)"/>
<path d="M0 0 C5.49508061 -0.14960429 10.98894667 -0.25780078 16.4855957 -0.32958984 C18.35071492 -0.3595503 20.21569582 -0.40033442 22.08032227 -0.45263672 C33.90548168 -0.77574582 43.34383032 -0.8448899 52.6496582 7.47485352 C58.95723387 14.30701512 60.15312581 22.62712401 60.11352539 31.53222656 C60.11367142 32.39112488 60.11381744 33.25002319 60.1139679 34.13494873 C60.11327196 36.97019996 60.10549445 39.80538526 60.09765625 42.640625 C60.09579094 44.60788945 60.09436757 46.57515436 60.09336853 48.54241943 C60.08955227 53.71766444 60.07972956 58.89288133 60.06866455 64.06811523 C60.0584313 69.35009379 60.0538668 74.63207689 60.04882812 79.9140625 C60.03810651 90.27605401 60.02104075 100.63802467 60 111 C56.12407475 109.42091934 53.59609704 107.27622227 51 104 C50.52212654 101.07349099 50.3466679 98.73426491 50.40405273 95.81665039 C50.3999942 95.00625809 50.39593567 94.19586578 50.39175415 93.36091614 C50.38624644 91.6067052 50.39221872 89.85242858 50.40841484 88.09828377 C50.43385463 85.31915711 50.4290308 82.54151224 50.41651917 79.76231384 C50.39577936 73.86221269 50.41544769 67.96257086 50.4375 62.0625 C50.45861768 55.22745731 50.46314568 48.39289208 50.43699837 41.55785942 C50.433642 38.82445081 50.45484464 36.09195801 50.47740173 33.35865784 C50.47488973 31.67668459 50.47132895 29.99471248 50.46655273 28.31274414 C50.47943832 27.55670898 50.49232391 26.80067383 50.50559998 26.02172852 C50.45691444 20.86843064 49.22377625 17.98321823 46 14 C38.06095996 7.18459916 27.18161073 8.21923349 17.375 8.1875 C15.68616615 8.16431866 13.99736088 8.13894586 12.30859375 8.11132812 C8.20562228 8.04894379 4.10340295 8.01624038 0 8 C0 5.36 0 2.72 0 0 Z " fill="#1A3043" transform="translate(56,65)"/>
<path d="M0 0 C5.28 0 10.56 0 16 0 C16.33 0.66 16.66 1.32 17 2 C20.3 2 23.6 2 27 2 C27 1.67 27 1.34 27 1 C29.64 1 32.28 1 35 1 C35 1.33 35 1.66 35 2 C40.445 2.495 40.445 2.495 46 3 C46 6.63 46 10.26 46 14 C41.38 14 36.76 14 32 14 C31.505 10.535 31.505 10.535 31 7 C30.67 7 30.34 7 30 7 C29.896875 8.093125 29.79375 9.18625 29.6875 10.3125 C29.02692273 13.85559629 28.7972908 14.93243723 26 17 C28.475 18.98 28.475 18.98 31 21 C31.33 20.34 31.66 19.68 32 19 C36.62 19 41.24 19 46 19 C46 21.64 46 24.28 46 27 C45.01 27 44.02 27 43 27 C43 27.66 43 28.32 43 29 C46.96 29 50.92 29 55 29 C55 29.33 55 29.66 55 30 C47.41 30.33 39.82 30.66 32 31 C31.67 31.66 31.34 32.32 31 33 C17.8 33 4.6 33 -9 33 C-9 32.67 -9 32.34 -9 32 C-7.865625 31.87625 -6.73125 31.7525 -5.5625 31.625 C-4.386875 31.41875 -3.21125 31.2125 -2 31 C-1.67 30.34 -1.34 29.68 -1 29 C-1.66 29 -2.32 29 -3 29 C-3 25.37 -3 21.74 -3 18 C1.19921875 17.70703125 1.19921875 17.70703125 5.3984375 17.4140625 C8.15508879 17.23636036 8.15508879 17.23636036 10 15 C5.71 14.67 1.42 14.34 -3 14 C-3 10.7 -3 7.4 -3 4 C-2.01 3.67 -1.02 3.34 0 3 C0 2.01 0 1.02 0 0 Z " fill="#182C40" transform="translate(275,55)"/>
<path d="M0 0 C2.97 0 5.94 0 9 0 C9 41.58 9 83.16 9 126 C7 126 7 126 5.30137539 124.66274261 C0.5549362 119.78410594 -0.80601853 116.28915385 -0.87094116 109.51620483 C-0.84577423 108.4415799 -0.8206073 107.36695496 -0.79467773 106.25976562 C-0.79569992 105.10767609 -0.79672211 103.95558655 -0.79777527 102.76858521 C-0.79291855 98.98018437 -0.73856044 95.19422708 -0.68359375 91.40625 C-0.67053093 88.77210812 -0.66057 86.13794918 -0.65357971 83.50378418 C-0.6318849 77.29167278 -0.57452835 71.0804311 -0.50413328 64.86870146 C-0.4256957 57.79259495 -0.387355 50.71644531 -0.35226524 43.64001179 C-0.2792384 29.09288292 -0.15481491 14.5464828 0 0 Z " fill="#081F36" transform="translate(125,69)"/>
<path d="M0 0 C1.65 0 3.3 0 5 0 C5 67.98 5 135.96 5 206 C3.35 206 1.7 206 0 206 C0 138.02 0 70.04 0 0 Z " fill="#F9FEFE" transform="translate(149,8)"/>
<path d="M0 0 C12.21 0 24.42 0 37 0 C37.495 2.97 37.495 2.97 38 6 C42.95 6 47.9 6 53 6 C53.33 4.02 53.66 2.04 54 0 C63.9 0 73.8 0 84 0 C82.9637622 5.18118899 82.53390142 6.68398651 78.59030151 9.80010986 C72.53928732 12.60308558 65.22809843 11.71292531 58.69140625 11.5859375 C56.99748746 11.57473551 55.30354912 11.56620006 53.60960388 11.56021118 C49.16872721 11.53739131 44.72904329 11.47852898 40.28863525 11.4119873 C35.75053032 11.35041579 31.21223109 11.32316458 26.67382812 11.29296875 C17.78203037 11.22877756 8.89111468 11.1264826 0 11 C-0.72795155 6.79405774 -1.04973814 4.19895255 0 0 Z " fill="#C8E0E3" transform="translate(249,152)"/>
<path d="M0 0 C27.06 0 54.12 0 82 0 C82 2.97 82 5.94 82 9 C54.94 9 27.88 9 0 9 C0 6.03 0 3.06 0 0 Z " fill="#193043" transform="translate(56,27)"/>
<path d="M0 0 C0.66 0 1.32 0 2 0 C2 17.16 2 34.32 2 52 C3.65 52 5.3 52 7 52 C7.0825 51.236875 7.165 50.47375 7.25 49.6875 C8 47 8 47 9.625 45.1875 C12.90103721 43.54948139 15.38586357 43.67144214 19 44 C19.99 44.66 20.98 45.32 22 46 C24.78855122 45.60428244 24.78855122 45.60428244 27 44 C30.97570557 43.61772062 33.40080437 43.70040218 37 45.5 C39.24166523 48.30208154 39.27287892 48.7910262 38.9375 52.1875 C38.628125 53.445625 38.31875 54.70375 38 56 C37.01 56.495 37.01 56.495 36 57 C35.34 55.02 34.68 53.04 34 51 C32.00045254 50.95745644 29.99958364 50.95919217 28 51 C26.71677453 52.0595877 26.71677453 52.0595877 26.875 54.5 C26.71677453 56.9404123 26.71677453 56.9404123 28 58 C30.67058851 58.14115161 33.32432238 58.04247107 36 58 C36.625 59.875 36.625 59.875 37 62 C35 64 35 64 32.9765625 64.265625 C31.81253906 64.25789063 31.81253906 64.25789063 30.625 64.25 C29.46871094 64.25773437 29.46871094 64.25773437 28.2890625 64.265625 C25.8007639 63.97688045 24.15765802 63.24139229 22 62 C21.34 62.66 20.68 63.32 20 64 C17.93701172 64.22705078 17.93701172 64.22705078 15.4296875 64.1953125 C14.53378906 64.18886719 13.63789063 64.18242187 12.71484375 64.17578125 C11.30912109 64.15064453 11.30912109 64.15064453 9.875 64.125 C8.45767578 64.11146484 8.45767578 64.11146484 7.01171875 64.09765625 C4.67422708 64.07404522 2.33723877 64.04111516 0 64 C0.33 62.35 0.66 60.7 1 59 C2.98 59 4.96 59 7 59 C7 58.34 7 57.68 7 57 C4.36 57 1.72 57 -1 57 C-1.02312916 49.71578452 -1.04091801 42.4315769 -1.05181217 35.14733219 C-1.05703975 31.76528187 -1.06413511 28.3832566 -1.07543945 25.0012207 C-1.08834267 21.11670223 -1.09322924 17.23219403 -1.09765625 13.34765625 C-1.10281754 12.12788589 -1.10797882 10.90811554 -1.11329651 9.65138245 C-1.11337204 8.53029587 -1.11344757 7.40920929 -1.11352539 6.25415039 C-1.115746 5.26153702 -1.11796661 4.26892365 -1.12025452 3.24623108 C-1 1 -1 1 0 0 Z " fill="#142B3E" transform="translate(162,137)"/>
<path d="M0 0 C21.45 0 42.9 0 65 0 C65 2.97 65 5.94 65 9 C43.55 9 22.1 9 0 9 C0 6.03 0 3.06 0 0 Z " fill="#1A3145" transform="translate(73,8)"/>
<path d="M0 0 C5.61 0 11.22 0 17 0 C17.66 0.66 18.32 1.32 19 2 C18.28972656 2.06058594 17.57945312 2.12117187 16.84765625 2.18359375 C15.92855469 2.26738281 15.00945312 2.35117188 14.0625 2.4375 C12.68771484 2.55931641 12.68771484 2.55931641 11.28515625 2.68359375 C9.03840268 2.76044976 9.03840268 2.76044976 8 4 C7.9016279 5.33043625 7.86921408 6.66593344 7.8671875 8 C7.86589844 8.804375 7.86460937 9.60875 7.86328125 10.4375 C7.86714844 11.283125 7.87101563 12.12875 7.875 13 C7.87113281 13.845625 7.86726562 14.69125 7.86328125 15.5625 C7.86457031 16.366875 7.86585938 17.17125 7.8671875 18 C7.86831543 18.7425 7.86944336 19.485 7.87060547 20.25 C7.81057784 22.02825811 7.81057784 22.02825811 9 23 C10.48638992 23.15655027 11.97949127 23.25066943 13.47265625 23.31640625 C14.37177734 23.35830078 15.27089844 23.40019531 16.19726562 23.44335938 C17.14279297 23.48267578 18.08832031 23.52199219 19.0625 23.5625 C20.4865918 23.62727539 20.4865918 23.62727539 21.93945312 23.69335938 C24.29278176 23.79979132 26.64637099 23.90043154 29 24 C29 29.28 29 34.56 29 40 C27.68 40 26.36 40 25 40 C23.375 37.625 23.375 37.625 22 35 C20.01607489 32.60148679 20.01607489 32.60148679 16.1875 32.5625 C12.56172025 32.62842327 12.05666105 32.95298338 9.0625 35.4375 C8.0415625 36.7059375 8.0415625 36.7059375 7 38 C6.505 38.495 6.505 38.495 6 39 C4.02 39 2.04 39 0 39 C0 26.13 0 13.26 0 0 Z " fill="#D0EAEC" transform="translate(223,149)"/>
<path d="M0 0 C15.78590467 -0.07014914 31.5717671 -0.12301704 47.35778904 -0.15543652 C54.68787923 -0.17089101 62.01787245 -0.1919533 69.34790039 -0.22631836 C75.73838761 -0.25626427 82.12880457 -0.27558531 88.51936001 -0.28226548 C91.9016575 -0.28616899 95.28375406 -0.29531288 98.66598701 -0.31719017 C102.44614703 -0.33896805 106.22589085 -0.34196668 110.00610352 -0.34057617 C111.12172668 -0.351362 112.23734985 -0.36214783 113.38677979 -0.3732605 C119.38322215 -0.34939397 123.69082922 0.14557956 129 3 C129 3.33 129 3.66 129 4 C86.43 4 43.86 4 0 4 C0 2.68 0 1.36 0 0 Z " fill="#BCD5DD" transform="translate(192,127)"/>
<path d="M0 0 C0.99 0.66 1.98 1.32 3 2 C5.33199388 2.07905064 7.66832622 2.08798769 10 2 C9.67 2.66 9.34 3.32 9 4 C8.01 4.33 7.02 4.66 6 5 C5.67 5.99 5.34 6.98 5 8 C5.66 8.33 6.32 8.66 7 9 C2.43545749 8.45660208 -0.9728176 7.20536179 -5 5 C-2.42215154 7.64752004 -0.08351902 9.94432065 3 12 C5.13148914 11.83708286 5.13148914 11.83708286 7.4375 11.1875 C13.26126717 9.85414119 19.0480006 9.38861852 25 9 C24.59007812 9.74765625 24.18015625 10.4953125 23.7578125 11.265625 C23.21898437 12.25046875 22.68015625 13.2353125 22.125 14.25 C21.59132812 15.22453125 21.05765625 16.1990625 20.5078125 17.203125 C19.29580534 19.45130408 18.12452433 21.7072805 17 24 C18.42878618 23.04747588 19.85740457 22.09469906 21.28515625 21.140625 C22.87193747 20.08518054 24.46688172 19.04203643 26.0625 18 C28.82591599 16.11852528 31.42047974 14.1243108 34 12 C34.80078125 13.65234375 34.80078125 13.65234375 35 16 C33.4583326 18.12017732 32.04757575 19.75977405 30.1875 21.5625 C29.68847168 22.05339111 29.18944336 22.54428223 28.67529297 23.05004883 C22.83358764 28.49794169 16.91963159 30.18189967 9 30 C8.16138021 24.63283335 11.07929595 21.20372761 14 17 C13.319375 17.29519531 12.63875 17.59039062 11.9375 17.89453125 C7.58593607 19.25439498 4.08128247 20.08673357 -0.13867188 17.88330078 C-2.44974086 16.31768874 -4.60159438 14.65709093 -6.75 12.875 C-7.46542969 12.28178955 -8.18085938 11.6885791 -8.91796875 11.07739258 C-12.64396742 7.78128192 -12.64396742 7.78128192 -14 6 C-14 4.68 -14 3.36 -14 2 C-9.05601526 0.0224061 -5.24801962 -0.34413243 0 0 Z " fill="#172E3F" transform="translate(174,40)"/>
<path d="M0 0 C0.99 0.33 1.98 0.66 3 1 C5.50843647 1.1194724 7.99128058 1.18522259 10.50073242 1.20532227 C11.26194901 1.21522186 12.02316559 1.22512146 12.80744934 1.23532104 C15.32342418 1.26690729 17.83941789 1.29168209 20.35546875 1.31640625 C22.09996532 1.33697826 23.84445693 1.3579748 25.58894348 1.37937927 C30.18053167 1.43457442 34.77216465 1.48399499 39.36383057 1.53222656 C44.04923489 1.58246024 48.73457417 1.63813657 53.41992188 1.69335938 C62.61322568 1.80090968 71.80658596 1.90236162 81 2 C81 3.65 81 5.3 81 7 C55.26 7 29.52 7 3 7 C3 12.28 3 17.56 3 23 C1.35 23 -0.3 23 -2 23 C-1.86149295 19.54133208 -1.71295273 16.08316725 -1.5625 12.625 C-1.52318359 11.64015625 -1.48386719 10.6553125 -1.44335938 9.640625 C-1.40146484 8.69960937 -1.35957031 7.75859375 -1.31640625 6.7890625 C-1.27974854 5.91975098 -1.24309082 5.05043945 -1.20532227 4.15478516 C-1 2 -1 2 0 0 Z " fill="#192D41" transform="translate(254,170)"/>
<path d="M0 0 C1.258125 0.350625 2.51625 0.70125 3.8125 1.0625 C4.864375 1.371875 5.91625 1.68125 7 2 C6.67 2.99 6.34 3.98 6 5 C5.34 5 4.68 5 4 5 C4 5.66 4 6.32 4 7 C-8.16529417 12.08799443 -20.25661933 16.59745267 -33 20 C-34.70349609 20.46212891 -34.70349609 20.46212891 -36.44140625 20.93359375 C-39.28479587 21.67735899 -42.13359471 22.35190533 -45 23 C-45.73605469 23.20238281 -46.47210938 23.40476562 -47.23046875 23.61328125 C-50.3306327 24.30287284 -52.45326628 24.29221975 -55.265625 22.7890625 C-57.34752705 21.29679005 -59.2336276 19.85563058 -61 18 C-61 17.34 -61 16.68 -61 16 C-58.40321849 16.43279692 -56.30814759 16.82666698 -54 18.125 C-51.22775257 19.33785825 -49.93258354 18.77827798 -47 18 C-44.40399001 16.96271137 -41.86059647 15.89278996 -39.3125 14.75 C-38.60351562 14.43643555 -37.89453125 14.12287109 -37.1640625 13.79980469 C-32.42378988 11.68654107 -27.78131772 9.42117816 -23.1640625 7.05078125 C-20.48427007 5.7495824 -17.75089793 4.7436219 -14.94140625 3.76171875 C-12.79036322 2.91774815 -10.83819797 1.85940094 -8.8125 0.75 C-5.41505249 -0.98177286 -3.69829812 -1.3275942 0 0 Z " fill="#C4DFE5" transform="translate(230,29)"/>
<path d="M0 0 C6.27 0 12.54 0 19 0 C18.34 7.59 17.68 15.18 17 23 C10.07 23 3.14 23 -4 23 C-4 15.125 -4 15.125 -3.125 11.81640625 C-2.96257812 11.18420166 -2.80015625 10.55199707 -2.6328125 9.90063477 C-2.42398438 9.12905029 -2.21515625 8.35746582 -2 7.5625 C-1.34 5.066875 -0.68 2.57125 0 0 Z " fill="#CBE7EA" transform="translate(213,85)"/>
<path d="M0 0 C5.49508061 -0.14960429 10.98894667 -0.25780078 16.4855957 -0.32958984 C18.35071492 -0.3595503 20.21569582 -0.40033442 22.08032227 -0.45263672 C42.80976191 -1.0190452 42.80976191 -1.0190452 51 6 C52.7746582 8.20166016 52.7746582 8.20166016 54 10 C53.1028125 10.12375 53.1028125 10.12375 52.1875 10.25 C49.4033704 11.20455872 48.56688858 12.57132271 47 15 C46.45730469 14.65066406 45.91460937 14.30132812 45.35546875 13.94140625 C44.64003906 13.48636719 43.92460938 13.03132813 43.1875 12.5625 C42.47980469 12.11003906 41.77210937 11.65757813 41.04296875 11.19140625 C36.77068024 8.69991869 32.6328455 8.787527 27.83203125 8.68359375 C26.63981209 8.6524221 26.63981209 8.6524221 25.42350769 8.62062073 C22.88659237 8.55527913 20.34957427 8.49631192 17.8125 8.4375 C16.09178628 8.39430014 14.37108292 8.35068537 12.65039062 8.30664062 C8.43369887 8.19961352 4.2169038 8.09830276 0 8 C0 5.36 0 2.72 0 0 Z " fill="#12283C" transform="translate(56,65)"/>
<path d="M0 0 C11.55 0 23.1 0 35 0 C35 8.58 35 17.16 35 26 C38.3 26 41.6 26 45 26 C44.67 27.98 44.34 29.96 44 32 C43.30519531 31.68289062 42.61039062 31.36578125 41.89453125 31.0390625 C38.73811356 29.90598948 36.02719833 29.59519989 32.6875 29.375 C31.61886719 29.30023438 30.55023438 29.22546875 29.44921875 29.1484375 C28.64097656 29.09945312 27.83273437 29.05046875 27 29 C27 28.34 27 27.68 27 27 C27.99 27 28.98 27 30 27 C30 24.36 30 21.72 30 19 C25.38 19 20.76 19 16 19 C15.67 20.32 15.34 21.64 15 23 C14.34 23.66 13.68 24.32 13 25 C12.896875 24.05125 12.79375 23.1025 12.6875 22.125 C12.31460705 18.70892499 12.31460705 18.70892499 9 17 C6.9507906 16.54860541 6.9507906 16.54860541 4.8125 16.375 C3.554375 16.25125 2.29625 16.1275 1 16 C1 15.67 1 15.34 1 15 C6.445 14.505 6.445 14.505 12 14 C12.33 11.36 12.66 8.72 13 6 C13.99 6 14.98 6 16 6 C16 8.64 16 11.28 16 14 C20.62 14 25.24 14 30 14 C30 10.37 30 6.74 30 3 C26.04 3 22.08 3 18 3 C18 2.67 18 2.34 18 2 C16.02 2 14.04 2 12 2 C12 2.33 12 2.66 12 3 C8.37 3 4.74 3 1 3 C0.67 2.01 0.34 1.02 0 0 Z " fill="#15293D" transform="translate(291,55)"/>
<path d="M0 0 C25.74 0 51.48 0 78 0 C78.495 2.475 78.495 2.475 79 5 C52.93 5 26.86 5 0 5 C0 3.35 0 1.7 0 0 Z " fill="#1D3143" transform="translate(257,196)"/>
<path d="M0 0 C2.97 0 5.94 0 9 0 C9 41.58 9 83.16 9 126 C8.34 126 7.68 126 7 126 C6.00470345 123.01411036 5.88891708 121.12040892 5.91770935 118.00764465 C5.92474884 116.97699387 5.93178833 115.94634308 5.93904114 114.88446045 C5.95198715 113.75445618 5.96493317 112.6244519 5.97827148 111.46020508 C5.98787903 110.26983139 5.99748657 109.0794577 6.00738525 107.85301208 C6.03473312 104.58878274 6.06663042 101.32463556 6.10053515 98.06046891 C6.13489719 94.64920587 6.16346448 91.23789447 6.19264221 87.82658386 C6.24877723 81.36676916 6.31013582 74.90701503 6.37336355 68.44726628 C6.44509222 61.09307958 6.51100918 53.73884439 6.57643402 46.38459933 C6.71114849 31.25633659 6.85317423 16.1281504 7 1 C5.02 1 3.04 1 1 1 C1 39.61 1 78.22 1 118 C0.67 118 0.34 118 0 118 C0 79.06 0 40.12 0 0 Z " fill="#425B68" transform="translate(125,69)"/>
<path d="M0 0 C3.96 0 7.92 0 12 0 C11.5136551 5.1876789 10.82918235 10.04341188 9.4765625 15.0703125 C8.74736732 18.02295526 8.37701006 20.98391956 8 24 C3.38 24 -1.24 24 -6 24 C-6.33854043 17.73700212 -5.37166065 13.26890429 -3 7.5 C-2.71382812 6.77296875 -2.42765625 6.0459375 -2.1328125 5.296875 C-1.43395426 3.52643412 -0.71868368 1.76248618 0 0 Z " fill="#C7E3E7" transform="translate(196,84)"/>
<path d="M0 0 C4.29 0 8.58 0 13 0 C13 7.92 13 15.84 13 24 C8.71 24 4.42 24 0 24 C0 16.08 0 8.16 0 0 Z " fill="#B6CFD7" transform="translate(254,59)"/>
<path d="M0 0 C2.97 0 5.94 0 9 0 C9.33773437 1.26457031 9.67546875 2.52914062 10.0234375 3.83203125 C10.47367054 5.49226557 10.92420721 7.15241757 11.375 8.8125 C11.59671875 9.64587891 11.8184375 10.47925781 12.046875 11.33789062 C12.26601562 12.14033203 12.48515625 12.94277344 12.7109375 13.76953125 C12.90993652 14.50792236 13.10893555 15.24631348 13.31396484 16.00708008 C14.00073929 18.27591737 14.00073929 18.27591737 16 21 C16 21.99 16 22.98 16 24 C10.39 24 4.78 24 -1 24 C-1.0270491 20.93744039 -1.04686298 17.8751214 -1.0625 14.8125 C-1.07087891 13.94818359 -1.07925781 13.08386719 -1.08789062 12.19335938 C-1.10396812 7.99713231 -1.07559038 4.09063114 0 0 Z " fill="#C7E2E6" transform="translate(237,85)"/>
<path d="M0 0 C0.99 0.495 0.99 0.495 2 1 C0.7625 1.7115625 0.7625 1.7115625 -0.5 2.4375 C-1.7375 3.2109375 -1.7375 3.2109375 -3 4 C-3 4.33 -3 4.66 -3 5 C1.95 5.495 1.95 5.495 7 6 C7 7.65 7 9.3 7 11 C6.505 9.02 6.505 9.02 6 7 C5.02947189 7.00888245 4.05894379 7.01776489 3.05900574 7.0269165 C-6.07871956 7.10793559 -15.21637217 7.16793317 -24.35437489 7.20724869 C-29.05256408 7.22814066 -33.75046377 7.25648746 -38.44848633 7.30175781 C-42.98074381 7.34515848 -47.51272252 7.36912497 -52.04517174 7.37950897 C-53.77600177 7.38691078 -55.50681622 7.40136458 -57.23752785 7.42292023 C-59.65844547 7.45187826 -62.07820517 7.45595932 -64.49926758 7.45410156 C-65.21783936 7.46848267 -65.93641113 7.48286377 -66.67675781 7.49768066 C-68.67805481 7.48101807 -68.67805481 7.48101807 -72 7 C-73.96879578 4.97161865 -73.96879578 4.97161865 -75 3 C-74.11938904 2.99191315 -73.23877808 2.98382629 -72.33148193 2.97549438 C-64.03269651 2.89755487 -55.73407345 2.81026606 -47.43549728 2.71247292 C-43.16910809 2.66252625 -38.90274347 2.61619608 -34.63623047 2.578125 C-30.51883654 2.54125157 -26.40164893 2.49488606 -22.28443146 2.44193649 C-20.71360137 2.42340347 -19.14272707 2.40829146 -17.57183075 2.39665604 C-15.37156547 2.37977472 -13.17177156 2.35073583 -10.97167969 2.31884766 C-9.71925476 2.30552399 -8.46682983 2.29220032 -7.17645264 2.2784729 C-4.15276306 2.01339241 -2.60443134 1.41466628 0 0 Z " fill="#AEC5CE" transform="translate(329,165)"/>
<path d="M0 0 C9.9 0 19.8 0 30 0 C29.04252706 4.78736468 28.62805543 6.17199601 24.86419678 9.02938843 C21.33769485 10.8654948 17.77525561 10.61046695 13.8828125 10.48828125 C12.5970784 10.47766914 12.5970784 10.47766914 11.28536987 10.46684265 C8.56433529 10.43899213 5.84540593 10.37627456 3.125 10.3125 C1.27346735 10.2874049 -0.57809776 10.26459385 -2.4296875 10.24414062 C-6.95392846 10.18919651 -11.47660809 10.10299162 -16 10 C-16 9.67 -16 9.34 -16 9 C-15.16855469 8.95101562 -14.33710938 8.90203125 -13.48046875 8.8515625 C-12.39378906 8.77679688 -11.30710937 8.70203125 -10.1875 8.625 C-9.10855469 8.55539063 -8.02960938 8.48578125 -6.91796875 8.4140625 C-3.81373814 8.18804267 -3.81373814 8.18804267 -1 6 C-0.67 4.02 -0.34 2.04 0 0 Z " fill="#D8EEF0" transform="translate(303,152)"/>
<path d="M0 0 C0 0.99 0 1.98 0 3 C0.99 3.33 1.98 3.66 3 4 C1.02 4.99 1.02 4.99 -1 6 C-1 6.66 -1 7.32 -1 8 C-2.66666667 9.66666667 -4.33333333 11.33333333 -6 13 C-6.33 13.99 -6.66 14.98 -7 16 C-3.7 16 -0.4 16 3 16 C3 16.33 3 16.66 3 17 C-1.95 17.495 -1.95 17.495 -7 18 C-7 18.33 -7 18.66 -7 19 C-4.36 19.33 -1.72 19.66 1 20 C0.67 20.99 0.34 21.98 0 23 C0 22.34 0 21.68 0 21 C-3.96 21 -7.92 21 -12 21 C-12.33 22.65 -12.66 24.3 -13 26 C-13.63893363 27.7810275 -14.30694238 29.55182789 -15 31.3125 C-16.73541569 35.95285065 -17.62801719 40.07122779 -18 45 C-18.33 45 -18.66 45 -19 45 C-19.33 42.36 -19.66 39.72 -20 37 C-20.33 37 -20.66 37 -21 37 C-21.66 43.6 -22.32 50.2 -23 57 C-23.33 57 -23.66 57 -24 57 C-24.31060574 47.18715945 -24.42096014 38.3486583 -21 29 C-20.7215625 28.16210938 -20.443125 27.32421875 -20.15625 26.4609375 C-17.69315016 19.60247846 -8.18191108 0 0 0 Z " fill="#223948" transform="translate(208,63)"/>
<path d="M0 0 C-0.0625 1.8125 -0.0625 1.8125 -1 4 C-4.96873594 6.09669068 -7.48438726 7 -12 7 C-12.309375 7.86625 -12.309375 7.86625 -12.625 8.75 C-14.49750888 11.81410544 -16.96958519 13.15539968 -20 15 C-20.66 14.34 -21.32 13.68 -22 13 C-22.886875 13.928125 -23.77375 14.85625 -24.6875 15.8125 C-28.6566978 19.77238044 -32.75191724 22.05071212 -38 24 C-36.7022818 19.28102473 -34.66886233 15.7215013 -31.92578125 11.734375 C-31.62027344 11.16203125 -31.31476563 10.5896875 -31 10 C-31.33 9.34 -31.66 8.68 -32 8 C-31.46632812 7.83395264 -30.93265625 7.66790527 -30.3828125 7.49682617 C-27.92113123 6.72941407 -25.46056681 5.9584776 -23 5.1875 C-22.16082031 4.92646484 -21.32164062 4.66542969 -20.45703125 4.39648438 C-16.4393399 3.13511616 -12.48192868 1.82326881 -8.5625 0.28125 C-5.0081956 -0.99705246 -3.50925075 -1.20630495 0 0 Z " fill="#1B3145" transform="translate(229,40)"/>
<path d="M0 0 C-0.75412145 5.27885012 -2.28813345 9.99002386 -4.0625 15 C-5.21626966 18.45092787 -5.21626966 18.45092787 -6 24 C-11.28 24 -16.56 24 -22 24 C-20.13089899 14.65449493 -13.61144518 7.52418289 -6 2 C-2.44078947 0 -2.44078947 0 0 0 Z " fill="#C7E1E8" transform="translate(239,55)"/>
<path d="M0 0 C0.33 0 0.66 0 1 0 C1 12.87 1 25.74 1 39 C7.23549509 37.96075082 8.10573106 37.45059307 12 33 C13 32 13 32 16.75 31.625 C20.46787234 31.63837364 20.92431788 31.93693156 24 34.5 C24.66 35.325 25.32 36.15 26 37 C25.67 37.66 25.34 38.32 25 39 C24.34 39 23.68 39 23 39 C22.7834375 40.7015625 22.7834375 40.7015625 22.5625 42.4375 C22 46 22 46 21 47 C14.67892977 47.46822742 14.67892977 47.46822742 12.1875 45.75 C11 44 11 44 9 40 C6.03 40 3.06 40 0 40 C0 26.8 0 13.6 0 0 Z " fill="#3B525F" transform="translate(222,149)"/>
<path d="M0 0 C-0.33 8.91 -0.66 17.82 -1 27 C-4.63 27 -8.26 27 -12 27 C-11.67154728 17.80332371 -10.48887476 8.59328045 -4.5234375 1.16015625 C-3 0 -3 0 0 0 Z " fill="#BDD6DC" transform="translate(250,53)"/>
<path d="M0 0 C8.91 0 17.82 0 27 0 C27 2.64 27 5.28 27 8 C18.09 8 9.18 8 0 8 C0 5.36 0 2.72 0 0 Z " fill="#C8E2E6" transform="translate(235,114)"/>
<path d="M0 0 C8.91 0 17.82 0 27 0 C27 2.97 27 5.94 27 9 C25.88625 8.855625 24.7725 8.71125 23.625 8.5625 C15.78171562 7.67839387 7.87963313 7.39950675 0 7 C0 4.69 0 2.38 0 0 Z " fill="#CFE9EC" transform="translate(223,137)"/>
<path d="M0 0 C2.35546875 1.0703125 2.35546875 1.0703125 4.35546875 3.0703125 C4.35546875 5.8828125 4.35546875 5.8828125 3.35546875 9.0703125 C-0.27571385 12.7014951 -3.9012597 15.0220816 -8.64453125 17.0703125 C-9.30453125 17.0703125 -9.96453125 17.0703125 -10.64453125 17.0703125 C-10.64453125 16.0803125 -10.64453125 15.0903125 -10.64453125 14.0703125 C-11.30453125 13.4103125 -11.96453125 12.7503125 -12.64453125 12.0703125 C-10.00453125 11.4103125 -7.36453125 10.7503125 -4.64453125 10.0703125 C-4.64453125 9.4103125 -4.64453125 8.7503125 -4.64453125 8.0703125 C-3.14453125 6.4453125 -3.14453125 6.4453125 -1.64453125 5.0703125 C-2.69640625 4.9259375 -3.74828125 4.7815625 -4.83203125 4.6328125 C-8.64453125 4.0703125 -8.64453125 4.0703125 -11.26953125 3.3828125 C-14.25181556 2.99040667 -15.97479736 3.77358461 -18.64453125 5.0703125 C-18.97453125 3.0903125 -19.30453125 1.1103125 -19.64453125 -0.9296875 C-13.11865466 -5.10624852 -6.64851655 -2.47599927 0 0 Z " fill="#1C3244" transform="translate(238.64453125,25.9296875)"/>
<path d="M0 0 C0 3.3 0 6.6 0 10 C4.95 10 9.9 10 15 10 C12 14 12 14 9.30078125 14.390625 C6.53385417 14.26041667 3.76692708 14.13020833 1 14 C1 17.63 1 21.26 1 25 C1.66 25 2.32 25 3 25 C2.67 25.99 2.34 26.98 2 28 C-4.23182639 29.03863773 -9.74692761 28.83288874 -16 28 C-16 27.01 -16 26.02 -16 25 C-12.04 24.67 -8.08 24.34 -4 24 C-3.67 16.41 -3.34 8.82 -3 1 C-1 0 -1 0 0 0 Z " fill="#0D2238" transform="translate(271,59)"/>
<path d="M0 0 C6.93 0 13.86 0 21 0 C21 2.64 21 5.28 21 8 C14.07 8 7.14 8 0 8 C0 5.36 0 2.72 0 0 Z " fill="#C4DBE2" transform="translate(267,114)"/>
<path d="M0 0 C0 0.33 0 0.66 0 1 C-4.455 1.495 -4.455 1.495 -9 2 C-9 2.33 -9 2.66 -9 3 C-4.71 3.66 -0.42 4.32 4 5 C4 5.66 4 6.32 4 7 C0.04176132 10.11861229 -3.04942264 10.38081364 -8 10 C-8.33 9.67 -8.66 9.34 -9 9 C-14.21687615 8.78250798 -14.21687615 8.78250798 -19.3125 9.625 C-19.869375 9.74875 -20.42625 9.8725 -21 10 C-21.99 9.34 -22.98 8.68 -24 8 C-24 6.68 -24 5.36 -24 4 C-16.23702211 -0.71248522 -8.79851917 -0.41732107 0 0 Z " fill="#1D3544" transform="translate(196,28)"/>
<path d="M0 0 C6.6 0 13.2 0 20 0 C20 2.64 20 5.28 20 8 C13.4 8 6.8 8 0 8 C0 5.36 0 2.72 0 0 Z " fill="#CCE9E9" transform="translate(210,114)"/>
<path d="M0 0 C3.96 0 7.92 0 12 0 C16 6.625 16 6.625 16 10 C10.72 10 5.44 10 0 10 C0 6.7 0 3.4 0 0 Z " fill="#C9DFE5" transform="translate(317,136)"/>
<path d="M0 0 C-1 3 -1 3 -3.1875 4.9375 C-7.47478422 8.97406584 -9.56049404 14.74374488 -12 20 C-15.3 20 -18.6 20 -22 20 C-21.07689062 16.30756248 -20.45048444 14.74454257 -18 12 C-17.34 12 -16.68 12 -16 12 C-16 11.34 -16 10.68 -16 10 C-14.07304071 8.39420059 -12.15227545 6.905767 -10.125 5.4375 C-9.29162109 4.8197168 -9.29162109 4.8197168 -8.44140625 4.18945312 C-2.75033245 0 -2.75033245 0 0 0 Z " fill="#C5DFE8" transform="translate(223,59)"/>
<path d="M0 0 C3.96 0 7.92 0 12 0 C12 3.63 12 7.26 12 11 C8.04 11 4.08 11 0 11 C0 7.37 0 3.74 0 0 Z " fill="#BCD3DB" transform="translate(274,136)"/>
<path d="M0 0 C2.25 2.5 2.25 2.5 4 5 C-0.03528292 6.88313203 -4.0937916 7.75440561 -8.44921875 8.53515625 C-10.94518484 8.95729336 -10.94518484 8.95729336 -13.14453125 9.55859375 C-16.26581743 10.25426503 -18.4348141 10.30007293 -21.2734375 8.79296875 C-23.34828683 7.29689318 -25.23597684 5.85316263 -27 4 C-27 3.34 -27 2.68 -27 2 C-24.40321849 2.43279692 -22.30814759 2.82666698 -20 4.125 C-17.17395 5.36139687 -15.9565821 4.91982554 -13 4 C-10.7070532 2.98502176 -8.4380627 1.93777404 -6.18359375 0.83984375 C-4 0 -4 0 0 0 Z " fill="#B2CBD5" transform="translate(196,43)"/>
<path d="M0 0 C4.29 0 8.58 0 13 0 C13 3.3 13 6.6 13 10 C8.71 10 4.42 10 0 10 C0 6.7 0 3.4 0 0 Z " fill="#BDD6DE" transform="translate(308,59)"/>
<path d="M0 0 C4.29 0 8.58 0 13 0 C13 3.3 13 6.6 13 10 C8.71 10 4.42 10 0 10 C0 6.7 0 3.4 0 0 Z " fill="#BFD6DD" transform="translate(290,59)"/>
<path d="M0 0 C4.29 0 8.58 0 13 0 C13 3.3 13 6.6 13 10 C8.71 10 4.42 10 0 10 C0 6.7 0 3.4 0 0 Z " fill="#BAD3DC" transform="translate(272,59)"/>
<path d="M0 0 C2.31 0 4.62 0 7 0 C7 5.94 7 11.88 7 18 C4.69 18 2.38 18 0 18 C0 12.06 0 6.12 0 0 Z " fill="#BCD4D9" transform="translate(291,136)"/>
<path d="M0 0 C1.93166016 0.01740234 1.93166016 0.01740234 3.90234375 0.03515625 C5.19269531 0.04417969 6.48304688 0.05320312 7.8125 0.0625 C8.81152344 0.07410156 9.81054688 0.08570312 10.83984375 0.09765625 C10.83984375 2.73765625 10.83984375 5.37765625 10.83984375 8.09765625 C5.88984375 8.09765625 0.93984375 8.09765625 -4.16015625 8.09765625 C-4.16015625 0.1285586 -4.16015625 0.1285586 0 0 Z " fill="#BCD4DB" transform="translate(297.16015625,113.90234375)"/>
<path d="M0 0 C4.29 0 8.58 0 13 0 C13 2.97 13 5.94 13 9 C8.71 9 4.42 9 0 9 C0 6.03 0 3.06 0 0 Z " fill="#D3ECEF" transform="translate(256,137)"/>
<path d="M0 0 C4.29 0 8.58 0 13 0 C13 2.97 13 5.94 13 9 C8.71 9 4.42 9 0 9 C0 6.03 0 3.06 0 0 Z " fill="#CCE4EA" transform="translate(290,74)"/>
<path d="M0 0 C4.29 0 8.58 0 13 0 C13 2.97 13 5.94 13 9 C8.71 9 4.42 9 0 9 C0 6.03 0 3.06 0 0 Z " fill="#CBE4EA" transform="translate(272,74)"/>
<path d="M0 0 C4.62 0 9.24 0 14 0 C14 2.64 14 5.28 14 8 C9.38 8 4.76 8 0 8 C0 5.36 0 2.72 0 0 Z " fill="#CCE7EC" transform="translate(190,114)"/>
<path d="M0 0 C0.99 0 1.98 0 3 0 C3.33 2.64 3.66 5.28 4 8 C9.445 8.495 9.445 8.495 15 9 C15 9.99 15 10.98 15 12 C13.84371094 12.03867188 13.84371094 12.03867188 12.6640625 12.078125 C11.66117187 12.13484375 10.65828125 12.1915625 9.625 12.25 C8.62726563 12.29640625 7.62953125 12.3428125 6.6015625 12.390625 C3.86960643 12.71126753 3.86960643 12.71126753 2.7734375 14.921875 C2.51820313 15.60765625 2.26296875 16.2934375 2 17 C1.34 17.66 0.68 18.32 0 19 C-0.103125 18.05125 -0.20625 17.1025 -0.3125 16.125 C-0.68539295 12.70892499 -0.68539295 12.70892499 -4 11 C-6.0492094 10.54860541 -6.0492094 10.54860541 -8.1875 10.375 C-9.445625 10.25125 -10.70375 10.1275 -12 10 C-12 9.67 -12 9.34 -12 9 C-6.555 8.505 -6.555 8.505 -1 8 C-0.67 5.36 -0.34 2.72 0 0 Z " fill="#091D33" transform="translate(304,61)"/>
<path d="M0 0 C3.3 0 6.6 0 10 0 C10 3.63 10 7.26 10 11 C3.06640625 11.09765625 3.06640625 11.09765625 1 11 C0 10 0 10 -0.09765625 7.71484375 C-0.06510417 5.14322917 -0.03255208 2.57161458 0 0 Z " fill="#B6CDD7" transform="translate(302,136)"/>
<path d="M0 0 C0.66 0 1.32 0 2 0 C1.48130083 5.014092 0.59642542 9.21072375 -1 14 C-1.43596875 16.66425349 -1.72198118 19.31248476 -2 22 C-2.33 22 -2.66 22 -3 22 C-3.33 19.36 -3.66 16.72 -4 14 C-4.33 14 -4.66 14 -5 14 C-5.66 20.6 -6.32 27.2 -7 34 C-7.33 34 -7.66 34 -8 34 C-8.35967249 22.63701369 -8.4391553 12.33439506 -3 2 C-2.01 2 -1.02 2 0 2 C0 1.34 0 0.68 0 0 Z " fill="#2F4756" transform="translate(192,86)"/>
<path d="M0 0 C0.66 0.33 1.32 0.66 2 1 C1.01 2.32 0.02 3.64 -1 5 C-0.34 5.66 0.32 6.32 1 7 C0.33613281 7.51949219 -0.32773438 8.03898437 -1.01171875 8.57421875 C-5.58622117 12.18707394 -10.01059399 15.74463359 -14 20 C-14.33 19.67 -14.66 19.34 -15 19 C-15.33 19.66 -15.66 20.32 -16 21 C-16.66 21 -17.32 21 -18 21 C-18.33 19.35 -18.66 17.7 -19 16 C-18.15179688 15.64292969 -17.30359375 15.28585938 -16.4296875 14.91796875 C-12.26691966 12.59004277 -9.40047839 9.73248479 -6.125 6.3125 C-5.53203125 5.70599609 -4.9390625 5.09949219 -4.328125 4.47460938 C-2.87844078 2.98985215 -1.43823532 1.49585009 0 0 Z " fill="#BAD3E0" transform="translate(212,52)"/>
<path d="M0 0 C1.4540625 0.0309375 1.4540625 0.0309375 2.9375 0.0625 C3.44365298 1.33089526 3.94219099 2.60233102 4.4375 3.875 C4.7159375 4.58269531 4.994375 5.29039062 5.28125 6.01953125 C5.9375 8.0625 5.9375 8.0625 5.9375 11.0625 C2.6375 11.0625 -0.6625 11.0625 -4.0625 11.0625 C-4.16015625 3.34765625 -4.16015625 3.34765625 -4.0625 1.0625 C-3.0625 0.0625 -3.0625 0.0625 0 0 Z " fill="#D1EAF1" transform="translate(239.0625,155.9375)"/>
<path d="M0 0 C10.56 0 21.12 0 32 0 C32 1.65 32 3.3 32 5 C32.99 5.33 33.98 5.66 35 6 C33.73882275 9.88862987 32.54735833 11.89375599 29 14 C28.34 14 27.68 14 27 14 C26.25 11.8125 26.25 11.8125 26 9 C27.875 6.375 27.875 6.375 30 4 C30.33 3.01 30.66 2.02 31 1 C21.1 1 11.2 1 1 1 C1 2.98 1 4.96 1 7 C0.67 7 0.34 7 0 7 C0 4.69 0 2.38 0 0 Z " fill="#475B6B" transform="translate(302,151)"/>
<path d="M0 0 C3.63 0 7.26 0 11 0 C11 5.61 11 11.22 11 17 C10.67 17 10.34 17 10 17 C10 15.35 10 13.7 10 12 C9.34 12 8.68 12 8 12 C8 10.02 8 8.04 8 6 C5.36 6 2.72 6 0 6 C0 4.02 0 2.04 0 0 Z " fill="#CBE4EB" transform="translate(255,60)"/>
<path d="M0 0 C3 0.25 3 0.25 5 2.25 C4.625 5.875 4.625 5.875 4 9.25 C0.625 9.375 0.625 9.375 -3 9.25 C-5 7.25 -5 7.25 -5.25 4.75 C-4.86630891 0.91308908 -3.76694968 0.31391247 0 0 Z " fill="#BED9DB" transform="translate(178,186.75)"/>
<path d="M0 0 C4.29 0 8.58 0 13 0 C13 1.98 13 3.96 13 6 C8.71 6 4.42 6 0 6 C0 4.02 0 2.04 0 0 Z " fill="#CEE6EE" transform="translate(308,74)"/>
<path d="M0 0 C10.89 0 21.78 0 33 0 C31.02 0.99 31.02 0.99 29 2 C28.67 2.33 28.34 2.66 28 3 C26.31391034 3.07205511 24.62499341 3.08386068 22.9375 3.0625 C22.01839844 3.05347656 21.09929687 3.04445312 20.15234375 3.03515625 C19.44207031 3.02355469 18.73179687 3.01195312 18 3 C18 2.67 18 2.34 18 2 C16.02 2 14.04 2 12 2 C12 2.33 12 2.66 12 3 C8.37 3 4.74 3 1 3 C0.67 2.01 0.34 1.02 0 0 Z " fill="#081C32" transform="translate(291,55)"/>
<path d="M0 0 C0.99 0.66 1.98 1.32 3 2 C5.33199388 2.07905064 7.66832622 2.08798769 10 2 C9.67 2.66 9.34 3.32 9 4 C8.01 4.33 7.02 4.66 6 5 C5.67 5.99 5.34 6.98 5 8 C5.66 8.33 6.32 8.66 7 9 C2.43545749 8.45660208 -0.9728176 7.20536179 -5 5 C-4.01 4.67 -3.02 4.34 -2 4 C-2 3.34 -2 2.68 -2 2 C-8.60718405 2.43546857 -8.60718405 2.43546857 -14 6 C-14 4.68 -14 3.36 -14 2 C-9.05601526 0.0224061 -5.24801962 -0.34413243 0 0 Z " fill="#1D3444" transform="translate(174,40)"/>
<path d="M0 0 C1.9375 0.8125 1.9375 0.8125 3.9375 2.8125 C4.1875 5.3125 4.1875 5.3125 3.9375 7.8125 C1.9375 9.8125 1.9375 9.8125 -0.5625 10.0625 C-3.0625 9.8125 -3.0625 9.8125 -5.0625 7.8125 C-5.43521546 4.90531944 -5.45528138 3.40167207 -3.8125 0.9375 C-2.0625 -0.1875 -2.0625 -0.1875 0 0 Z " fill="#C7DFE3" transform="translate(239.0625,186.1875)"/>
<path d="M0 0 C2.9375 0.1875 2.9375 0.1875 3.9375 1.1875 C4.125 4.125 4.125 4.125 3.9375 7.1875 C1.9375 9.1875 1.9375 9.1875 -0.5625 9.4375 C-3.0625 9.1875 -3.0625 9.1875 -5.0625 7.1875 C-5.3125 4.6875 -5.3125 4.6875 -5.0625 2.1875 C-3.0625 0.1875 -3.0625 0.1875 0 0 Z " fill="#CAE5E7" transform="translate(193.0625,186.8125)"/>
<path d="M0 0 C0.99 1.32 1.98 2.64 3 4 C2.67 4.66 2.34 5.32 2 6 C14.87 6.495 14.87 6.495 28 7 C28 7.33 28 7.66 28 8 C19.09 8 10.18 8 1 8 C0.34 9.65 -0.32 11.3 -1 13 C-1.45375 12.525625 -1.9075 12.05125 -2.375 11.5625 C-3.93258204 9.90972192 -3.93258204 9.90972192 -6 9 C-5.34 7.02 -4.68 5.04 -4 3 C-3.34 4.32 -2.68 5.64 -2 7 C-1.34 4.69 -0.68 2.38 0 0 Z " fill="#2E4657" transform="translate(201,186)"/>
<path d="M0 0 C-3.66866356 4.5142775 -7.33534808 8.50151106 -12 12 C-12.66 12 -13.32 12 -14 12 C-10.98813056 2.53412463 -10.98813056 2.53412463 -7.6875 0.75 C-4.98166314 -0.00511726 -2.79292118 -0.1595955 0 0 Z " fill="#ACC5D3" transform="translate(205,52)"/>
<path d="M0 0 C5.61 0 11.22 0 17 0 C17 0.66 17 1.32 17 2 C13.02933219 5.12840494 9.97011611 5.52317012 5 5 C1.5625 3.5 1.5625 3.5 -1 2 C-0.67 1.34 -0.34 0.68 0 0 Z " fill="#B4CDD8" transform="translate(183,33)"/>
<path d="M0 0 C3.03163448 2.59854384 4.57824678 5.27636062 6 9 C6.24038 12.35029625 6.17887272 15.64779278 6 19 C5.67 19 5.34 19 5 19 C4.67 16.36 4.34 13.72 4 11 C3.01 11.33 2.02 11.66 1 12 C-0.33525717 12.07973476 -1.67412083 12.10771338 -3.01171875 12.09765625 C-4.14770508 12.09282227 -4.14770508 12.09282227 -5.30664062 12.08789062 C-6.09232422 12.07951172 -6.87800781 12.07113281 -7.6875 12.0625 C-8.48478516 12.05798828 -9.28207031 12.05347656 -10.10351562 12.04882812 C-12.06904257 12.0370585 -14.03453085 12.01912348 -16 12 C-16 11.67 -16 11.34 -16 11 C-10.72 11 -5.44 11 0 11 C0 9.02 0 7.04 0 5 C0 3.33333333 0 1.66666667 0 0 Z " fill="#3F5264" transform="translate(333,135)"/>
<path d="M0 0 C1.13643966 3.40931897 0.86747764 4.00335456 -0.4375 7.1875 C-0.86869141 8.26064453 -0.86869141 8.26064453 -1.30859375 9.35546875 C-1.65083984 10.16951172 -1.65083984 10.16951172 -2 11 C-3.32 10.67 -4.64 10.34 -6 10 C-6 8.02 -6 6.04 -6 4 C-13.59 4 -21.18 4 -29 4 C-29 3.67 -29 3.34 -29 3 C-28.19256348 3.01571045 -27.38512695 3.0314209 -26.55322266 3.04760742 C-22.91055244 3.10979679 -19.26799366 3.14894009 -15.625 3.1875 C-14.35398437 3.21263672 -13.08296875 3.23777344 -11.7734375 3.26367188 C-9.95585937 3.27817383 -9.95585937 3.27817383 -8.1015625 3.29296875 C-6.42054443 3.31653442 -6.42054443 3.31653442 -4.70556641 3.34057617 C-3.81272949 3.22818604 -2.91989258 3.1157959 -2 3 C-1.34 2.01 -0.68 1.02 0 0 Z " fill="#405467" transform="translate(336,82)"/>
<path d="M0 0 C0.66 0.66 1.32 1.32 2 2 C1.4375 3.9375 1.4375 3.9375 0 6 C-3.4375 6.6875 -3.4375 6.6875 -7 7 C-7.99 7.33 -8.98 7.66 -10 8 C-10.33 6.02 -10.66 4.04 -11 2 C-7.36534398 -0.32617985 -4.23963281 -0.31404687 0 0 Z " fill="#203749" transform="translate(230,23)"/>
<path d="M0 0 C2.56676013 0.42779335 4.62756078 0.77653647 6.875 2.125 C10.06048258 3.4366693 12.69048266 2.63644564 16 2 C16 3.66666667 16 5.33333333 16 7 C9.3010989 8.67472527 9.3010989 8.67472527 5.6875 6.80078125 C3.64247869 5.29257803 1.75259416 3.8411561 0 2 C0 1.34 0 0.68 0 0 Z " fill="#A9C2CD" transform="translate(169,45)"/>
<path d="M0 0 C2.31 0 4.62 0 7 0 C6.39679932 0.26603027 5.79359863 0.53206055 5.17211914 0.80615234 C2.9390556 2.03349647 1.89449273 3.19909677 0.24609375 5.1015625 C-5.30480625 9.97805409 -13.00726633 8.62354114 -19.9375 8.375 C-21.39903366 8.34486529 -22.8606271 8.31749563 -24.32226562 8.29296875 C-27.88276374 8.22724219 -31.44099692 8.12391851 -35 8 C-35 7.67 -35 7.34 -35 7 C-34.14245117 6.97494385 -33.28490234 6.9498877 -32.40136719 6.92407227 C-29.2106563 6.82876588 -26.02009781 6.72954249 -22.82958984 6.62768555 C-21.45040622 6.5844545 -20.07117315 6.54277134 -18.69189453 6.50268555 C-16.70593062 6.44469597 -14.72014731 6.38062277 -12.734375 6.31640625 C-10.94338379 6.26141968 -10.94338379 6.26141968 -9.11621094 6.20532227 C-5.4715867 5.97974626 -5.4715867 5.97974626 -2 5 C-0.70339566 2.50965614 -0.70339566 2.50965614 0 0 Z " fill="#C3DDE6" transform="translate(248,194)"/>
<path d="M0 0 C0 1.33333333 0 2.66666667 0 4 C-5.94 4 -11.88 4 -18 4 C-18 3.01 -18 2.02 -18 1 C-12.06 0.67 -6.12 0.34 0 0 Z " fill="#071D31" transform="translate(231,196)"/>
<path d="M0 0 C4.95 0 9.9 0 15 0 C15.33 0.66 15.66 1.32 16 2 C15.67 2.66 15.34 3.32 15 4 C8.07 3.505 8.07 3.505 1 3 C0.67 2.01 0.34 1.02 0 0 Z " fill="#0A202F" transform="translate(184,29)"/>
<path d="M0 0 C4.95 0 9.9 0 15 0 C15 0.99 15 1.98 15 3 C9.72 3 4.44 3 -1 3 C-0.67 2.01 -0.34 1.02 0 0 Z " fill="#081D32" transform="translate(225,145)"/>
<path d="M0 0 C7.26153846 -0.61538462 7.26153846 -0.61538462 11 2.5 C11.66 3.325 12.32 4.15 13 5 C12.67 5.66 12.34 6.32 12 7 C11.34 7 10.68 7 10 7 C9.67 9.31 9.34 11.62 9 14 C8.01 14 7.02 14 6 14 C6.33 13.67 6.66 13.34 7 13 C7.29386153 9.27775401 7.14809171 8.22213757 5 5 C5.99 5 6.98 5 8 5 C8 4.01 8 3.02 8 2 C5.36 1.67 2.72 1.34 0 1 C0 0.67 0 0.34 0 0 Z " fill="#3E5561" transform="translate(235,181)"/>
<path d="M0 0 C0.66 0.99 1.32 1.98 2 3 C1.67 4.65 1.34 6.3 1 8 C6.28 8 11.56 8 17 8 C17 8.33 17 8.66 17 9 C11.06 9 5.12 9 -1 9 C-1.33 7.68 -1.66 6.36 -2 5 C-2.66 5 -3.32 5 -4 5 C-3.34 3.68 -2.68 2.36 -2 1 C-1.67 1.33 -1.34 1.66 -1 2 C-0.67 1.34 -0.34 0.68 0 0 Z " fill="#3B5161" transform="translate(216,71)"/>
<path d="M0 0 C2.97 0.33 5.94 0.66 9 1 C9.33 2.32 9.66 3.64 10 5 C9.34 5.66 8.68 6.32 8 7 C8 6.34 8 5.68 8 5 C5.36 5 2.72 5 0 5 C0 3.35 0 1.7 0 0 Z " fill="#132A39" transform="translate(230,25)"/>
<path d="M0 0 C1.81552978 0.61614355 3.6273653 1.24318228 5.4375 1.875 C6.95150391 2.39707031 6.95150391 2.39707031 8.49609375 2.9296875 C11 4 11 4 12 6 C6.0819503 7.32854177 3.22270869 6.66464729 -2 4 C-1.34 2.68 -0.68 1.36 0 0 Z " fill="#ACC7D0" transform="translate(172,36)"/>
<path d="M0 0 C-0.1875 1.875 -0.1875 1.875 -1 4 C-4.37823976 5.87679987 -7.17632299 6.21849583 -11 6 C-9.90648447 2.82880497 -8.9873012 1.99216457 -6.0625 0.1875 C-3 -1 -3 -1 0 0 Z " fill="#11253A" transform="translate(229,40)"/>
<path d="M0 0 C0.66 1.32 1.32 2.64 2 4 C-0.31 5.98 -2.62 7.96 -5 10 C-5.66 9.67 -6.32 9.34 -7 9 C-5.44499019 5.18315774 -2.96404505 2.80804268 0 0 Z " fill="#122738" transform="translate(207,52)"/>
<path d="M0 0 C1.65 0 3.3 0 5 0 C5.33 1.65 5.66 3.3 6 5 C3.69 5 1.38 5 -1 5 C-0.67 3.35 -0.34 1.7 0 0 Z " fill="#20364A" transform="translate(258,72)"/>
<path d="M0 0 C1.98 0 3.96 0 6 0 C6.5625 1.9375 6.5625 1.9375 7 4 C6 5 6 5 2.9375 5.0625 C1.4834375 5.0315625 1.4834375 5.0315625 0 5 C0 3.35 0 1.7 0 0 Z " fill="#1D3346" transform="translate(257,65)"/>
<path d="M0 0 C3.96 0 7.92 0 12 0 C11.01 0.495 11.01 0.495 10 1 C10 1.66 10 2.32 10 3 C6.7 3 3.4 3 0 3 C0 2.01 0 1.02 0 0 Z " fill="#081C32" transform="translate(275,55)"/>
<path d="M0 0 C0.33 0 0.66 0 1 0 C1 1.98 1 3.96 1 6 C1.66 6 2.32 6 3 6 C3 7.32 3 8.64 3 10 C2.34 10 1.68 10 1 10 C1 14.29 1 18.58 1 23 C0.67 23 0.34 23 0 23 C0 15.41 0 7.82 0 0 Z " fill="#ABC3CD" transform="translate(254,60)"/>
<path d="M0 0 C0.3690205 9.41002278 0.3690205 9.41002278 -2 14 C-2.33 14 -2.66 14 -3 14 C-3 9.71 -3 5.42 -3 1 C-1 0 -1 0 0 0 Z " fill="#091E2D" transform="translate(271,59)"/>
<path d="M0 0 C0.33 0.99 0.66 1.98 1 3 C3.01508358 3.73323796 3.01508358 3.73323796 5 4 C4.34 5.98 3.68 7.96 3 10 C1.68 9.34 0.36 8.68 -1 8 C-0.67 5.36 -0.34 2.72 0 0 Z " fill="#25384A" transform="translate(329,89)"/>
<path d="M0 0 C0 0.99 0 1.98 0 3 C0.99 3.33 1.98 3.66 3 4 C2.360625 4.28875 1.72125 4.5775 1.0625 4.875 C-1.15206079 5.82823451 -1.15206079 5.82823451 -2 8 C-2.12375 7.360625 -2.2475 6.72125 -2.375 6.0625 C-2.684375 5.0415625 -2.684375 5.0415625 -3 4 C-3.66 3.67 -4.32 3.34 -5 3 C-2.25 0 -2.25 0 0 0 Z " fill="#2A404D" transform="translate(208,63)"/>
<path d="M0 0 C3.3 0 6.6 0 10 0 C9.67 0.99 9.34 1.98 9 3 C6.03 3 3.06 3 0 3 C0 2.01 0 1.02 0 0 Z " fill="#081F2D" transform="translate(200,80)"/>
<path d="M0 0 C2.31 0 4.62 0 7 0 C6.41734375 0.26554688 5.8346875 0.53109375 5.234375 0.8046875 C2.93825772 2.03302996 1.19643982 3.40314939 -0.75 5.125 C-1.36359375 5.66382813 -1.9771875 6.20265625 -2.609375 6.7578125 C-3.06828125 7.16773438 -3.5271875 7.57765625 -4 8 C-4.66 7.34 -5.32 6.68 -6 6 C-5.38125 5.938125 -4.7625 5.87625 -4.125 5.8125 C-1.72238859 5.171081 -1.72238859 5.171081 -0.75 2.4375 C-0.5025 1.633125 -0.255 0.82875 0 0 Z " fill="#B5CED4" transform="translate(248,194)"/>
<path d="M0 0 C0.33 0.66 0.66 1.32 1 2 C1.99 2.33 2.98 2.66 4 3 C-2.28571429 5.42857143 -2.28571429 5.42857143 -6 4 C-4 1 -4 1 -1.875 0.3125 C-1.25625 0.209375 -0.6375 0.10625 0 0 Z " fill="#CCE6EE" transform="translate(189,46)"/>
<path d="M0 0 C5.61 0 11.22 0 17 0 C16.67 0.66 16.34 1.32 16 2 C11.71 1.67 7.42 1.34 3 1 C3 1.66 3 2.32 3 3 C1.68 2.67 0.36 2.34 -1 2 C-0.67 1.34 -0.34 0.68 0 0 Z " fill="#8EA7B5" transform="translate(183,33)"/>
<path d="M0 0 C1.32 0 2.64 0 4 0 C3.67 2.97 3.34 5.94 3 9 C0.86928411 6.40608501 -0.53582673 4.36525621 -1 1 C-0.67 0.67 -0.34 0.34 0 0 Z " fill="#1C3146" transform="translate(231,184)"/>
<path d="M0 0 C1.4540625 0.0309375 1.4540625 0.0309375 2.9375 0.0625 C2.2775 1.3825 1.6175 2.7025 0.9375 4.0625 C0.9375 3.4025 0.9375 2.7425 0.9375 2.0625 C-0.3825 2.0625 -1.7025 2.0625 -3.0625 2.0625 C-3.0625 5.0325 -3.0625 8.0025 -3.0625 11.0625 C-3.3925 11.0625 -3.7225 11.0625 -4.0625 11.0625 C-4.08938151 9.41675434 -4.10884123 7.77088587 -4.125 6.125 C-4.13660156 5.20847656 -4.14820313 4.29195312 -4.16015625 3.34765625 C-4.00919455 -0.18484756 -3.60673121 0.07360676 0 0 Z " fill="#88A0AC" transform="translate(239.0625,155.9375)"/>
<path d="M0 0 C0.33 0.66 0.66 1.32 1 2 C1.99 2.33 2.98 2.66 4 3 C3.67 3.99 3.34 4.98 3 6 C2.67 5.34 2.34 4.68 2 4 C1.21625 4.515625 0.4325 5.03125 -0.375 5.5625 C-1.24125 6.036875 -2.1075 6.51125 -3 7 C-3.66 6.67 -4.32 6.34 -5 6 C-3.35 4.02 -1.7 2.04 0 0 Z " fill="#2C3F50" transform="translate(333,154)"/>
<path d="M0 0 C-0.33 1.65 -0.66 3.3 -1 5 C-1.33 4.01 -1.66 3.02 -2 2 C-2.66 2 -3.32 2 -4 2 C-4 2.66 -4 3.32 -4 4 C-4.99 4 -5.98 4 -7 4 C-6.6875 2.0625 -6.6875 2.0625 -6 0 C-3 -1 -3 -1 0 0 Z " fill="#2B4252" transform="translate(196,84)"/>
<path d="M0 0 C0.66 1.32 1.32 2.64 2 4 C1 5 1 5 -0.84765625 5.09765625 C-2.8984375 5.06510417 -4.94921875 5.03255208 -7 5 C-4.78065836 1.67098753 -3.65316671 1.24976756 0 0 Z " fill="#0A2030" transform="translate(197,195)"/>
<path d="M0 0 C0.66 0.33 1.32 0.66 2 1 C0.87895467 2.31587941 -0.24696965 3.62760353 -1.375 4.9375 C-2.00148438 5.66839844 -2.62796875 6.39929687 -3.2734375 7.15234375 C-5 9 -5 9 -7 10 C-5.6062718 5.56541027 -3.39417765 3.12621626 0 0 Z " fill="#2E4658" transform="translate(17,53)"/>
<path d="M0 0 C3.125 -0.1875 3.125 -0.1875 6 0 C6.33 0.99 6.66 1.98 7 3 C4.03 3 1.06 3 -2 3 C-1.34 2.01 -0.68 1.02 0 0 Z " fill="#081E34" transform="translate(204,190)"/>
<path d="M0 0 C0 1.66666667 0 3.33333333 0 5 C-1.98 5 -3.96 5 -6 5 C-6.33 4.34 -6.66 3.68 -7 3 C-2.25 0 -2.25 0 0 0 Z " fill="#B5CED7" transform="translate(185,47)"/>
<path d="M0 0 C0.94875 0.04125 1.8975 0.0825 2.875 0.125 C-1.875 4.125 -1.875 4.125 -4.125 4.125 C-4.455 5.115 -4.785 6.105 -5.125 7.125 C-5.25 4.75 -5.25 4.75 -5.125 2.125 C-3.125 0.125 -3.125 0.125 0 0 Z " fill="#B9D3DC" transform="translate(193.125,186.875)"/>
<path d="M0 0 C2.12508244 3.18762365 2.5020163 5.26512223 3 9 C1.35 9.33 -0.3 9.66 -2 10 C-2 9.01 -2 8.02 -2 7 C-1.01 7 -0.02 7 1 7 C0.67 4.69 0.34 2.38 0 0 Z " fill="#374D5A" transform="translate(253,94)"/>
<path d="M0 0 C0.33 0 0.66 0 1 0 C1.33 2.97 1.66 5.94 2 9 C2.66 9 3.32 9 4 9 C3.34 10.32 2.68 11.64 2 13 C0.21590198 9.93753253 -0.22880021 7.77920727 -0.125 4.25 C-0.10695313 3.45078125 -0.08890625 2.6515625 -0.0703125 1.828125 C-0.04710937 1.22484375 -0.02390625 0.6215625 0 0 Z " fill="#A2BECB" transform="translate(14,74)"/>
<path d="M0 0 C1.32 0.66 2.64 1.32 4 2 C2.02 3.32 0.04 4.64 -2 6 C-2.33 5.01 -2.66 4.02 -3 3 C-2.01 2.01 -1.02 1.02 0 0 Z " fill="#BAD3E0" transform="translate(209,57)"/>
<path d="M0 0 C0.33 1.65 0.66 3.3 1 5 C-0.32 5.33 -1.64 5.66 -3 6 C-3 5.01 -3 4.02 -3 3 C-3.66 2.34 -4.32 1.68 -5 1 C-3 0 -3 0 0 0 Z " fill="#263D50" transform="translate(231,37)"/>
<path d="M0 0 C0.66 0 1.32 0 2 0 C2 1.98 2 3.96 2 6 C1.01 6.33 0.02 6.66 -1 7 C-1.04254356 5.00045254 -1.04080783 2.99958364 -1 1 C-0.67 0.67 -0.34 0.34 0 0 Z " fill="#091C33" transform="translate(310,114)"/>
<path d="M0 0 C0.66 0 1.32 0 2 0 C2.625 1.875 2.625 1.875 3 4 C2.34 4.66 1.68 5.32 1 6 C0.01 5.67 -0.98 5.34 -2 5 C-1.34 3.35 -0.68 1.7 0 0 Z " fill="#0B212D" transform="translate(203,67)"/>
<path d="M0 0 C-1.13304992 3.39914975 -2.12518475 4.05254451 -5 6 C-5.99 5.34 -6.98 4.68 -8 4 C-2.25 0 -2.25 0 0 0 Z " fill="#92A9B9" transform="translate(223,59)"/>
<path d="M0 0 C0.66 0.33 1.32 0.66 2 1 C1.67 2.32 1.34 3.64 1 5 C-0.32 5 -1.64 5 -3 5 C-3 4.01 -3 3.02 -3 2 C-2.01 1.34 -1.02 0.68 0 0 Z " fill="#0F2334" transform="translate(211,61)"/>
<path d="M0 0 C-1.72526042 0.71614583 -3.45052083 1.43229167 -5.17578125 2.1484375 C-7.26533932 3.06806692 -7.26533932 3.06806692 -10 5 C-10 3.68 -10 2.36 -10 1 C-3.71428571 -1.42857143 -3.71428571 -1.42857143 0 0 Z " fill="#2E4654" transform="translate(170,41)"/>
<path d="M0 0 C0.94875 0.04125 1.8975 0.0825 2.875 0.125 C2.2975 0.351875 1.72 0.57875 1.125 0.8125 C-1.6913661 2.45538023 -3.20577114 4.52033227 -5.125 7.125 C-5.25 4.75 -5.25 4.75 -5.125 2.125 C-3.125 0.125 -3.125 0.125 0 0 Z " fill="#B2CAD5" transform="translate(178.125,186.875)"/>
</svg>
